<svg id="Layer_1" data-name="Layer 1" xmlns="http://www.w3.org/2000/svg" viewBox="0 0 800 1200" preserveAspectRatio="none"><defs><style>.cls-1{fill:#061d60;}.cls-2{fill:#ffd02e;stroke:#ffd02e;stroke-width:0.95px;}</style></defs><title>Artboard 1 copy 15r</title><rect class="cls-1" width="800" height="480"/><path class="cls-2" d="M609.36,509.37l-13.15-18.14L575,498.12,588.1,480,575,461.94l21.27,6.91,13.19-18.16,0,22.43L630.7,480l-21.31,6.92ZM459.82,206l22.41-.37-18.35-12.89,6.56-21.43L452.56,184.8,434.2,171.9l7.31,21.22-17.86,13.46,22.37-.37,7.27,21.12Zm59.39,56.84,21.85,5L526.3,250.93l11.46-19.26-20.57,8.84-14.77-16.89L504.49,246l-20.55,8.83,21.81,5,2,22.24Zm44,69.32,20,10-10.33-19.91,15.71-16L566.52,310l-10.33-19.91-3.32,22.2L530.82,316l20,10-3.3,22.09Zm37.9,70.37,19.06-11.79-22.33-1.65-5.3-21.8L584,388.07l-22.3-1.65,17.06,14.47-8.46,20.67,19-11.74,17.09,14.5ZM597.77,571l22.35-1.65-19-11.78,5.36-21.78-17.13,14.5-19-11.76,8.45,20.71-17,14.43L583.95,572l8.46,20.75ZM566.48,650l22.1,3.7-15.7-16,10.39-19.88-20.09,10L547.5,612l3.28,22.13-20,10,22,3.69,3.29,22.17Zm-49.34,69.47,20.59,8.85-11.45-19.24,14.81-16.84-21.89,5L507.75,678l-2.07,22.27-21.78,4.93L504.4,714l-2.08,22.31Zm-64.65,55.71,17.89,13.49-6.55-21.41,18.39-12.84-22.44-.39-6.54-21.39-7.31,21.14-22.33-.39,17.82,13.44-7.32,21.18Z"/></svg>