<svg id="Layer_1" data-name="Layer 1" xmlns="http://www.w3.org/2000/svg" viewBox="0 0 800 1200" preserveAspectRatio="none"><defs><style>.cls-1{fill:#005eb8;}.cls-2{fill:#ffe900;}.cls-3{fill:#da291c;}.cls-4{fill:#fff;}</style></defs><title>Artboard 1 copy 20</title><rect class="cls-1" y="800" width="800" height="400"/><rect class="cls-1" width="800" height="400"/><rect class="cls-2" y="400" width="800" height="400"/><polygon class="cls-3" points="360 480 360 560 280 560 240 520 240 680 280 640 360 640 360 720 320 760 480 760 440 720 440 640 520 640 560 680 560 520 520 560 440 560 440 480 480 440 320 440 360 480"/><path class="cls-4" d="M280,613.33H386.67V720h26.67V613.33H520V586.67H413.33V480H386.67V586.67H280Z"/></svg>