<svg id="Layer_1" data-name="Layer 1" xmlns="http://www.w3.org/2000/svg" viewBox="0 0 800 1200" preserveAspectRatio="none"><defs><style>.cls-1{fill:#49a5e5;}</style></defs><title>Artboard 1 copy 2</title><polygon class="cls-1" points="800 28.57 750 0 700 28.57 750 57.14 800 28.57"/><polygon class="cls-1" points="750 114.29 800 85.71 750 57.14 700 85.71 750 114.29"/><polygon class="cls-1" points="750 171.43 800 142.86 750 114.29 700 142.86 750 171.43"/><polygon class="cls-1" points="750 228.57 800 200 750 171.43 700 200 750 228.57"/><polygon class="cls-1" points="750 285.71 800 257.14 750 228.57 700 257.14 750 285.71"/><polygon class="cls-1" points="750 342.86 800 314.29 750 285.71 700 314.29 750 342.86"/><polygon class="cls-1" points="750 400 800 371.43 750 342.86 700 371.43 750 400"/><polygon class="cls-1" points="750 457.14 800 428.57 750 400 700 428.57 750 457.14"/><polygon class="cls-1" points="750 514.29 800 485.71 750 457.14 700 485.71 750 514.29"/><polygon class="cls-1" points="750 571.43 800 542.86 750 514.29 700 542.86 750 571.43"/><polygon class="cls-1" points="750 628.57 800 600 750 571.43 700 600 750 628.57"/><polygon class="cls-1" points="750 685.71 800 657.14 750 628.57 700 657.14 750 685.71"/><polygon class="cls-1" points="750 742.86 800 714.29 750 685.71 700 714.29 750 742.86"/><polygon class="cls-1" points="750 800 800 771.43 750 742.86 700 771.43 750 800"/><polygon class="cls-1" points="750 857.14 800 828.57 750 800 700 828.57 750 857.14"/><polygon class="cls-1" points="750 914.29 800 885.71 750 857.14 700 885.71 750 914.29"/><polygon class="cls-1" points="750 971.43 800 942.86 750 914.29 700 942.86 750 971.43"/><polygon class="cls-1" points="750 1028.57 800 1000 750 971.43 700 1000 750 1028.57"/><polygon class="cls-1" points="750 1085.71 800 1057.14 750 1028.57 700 1057.14 750 1085.71"/><polygon class="cls-1" points="750 1142.86 800 1114.29 750 1085.71 700 1114.29 750 1142.86"/><polygon class="cls-1" points="750 1200 800 1171.43 750 1142.86 700 1171.43 750 1200"/><polygon class="cls-1" points="700 28.57 650 0 600 28.57 650 57.14 700 28.57"/><polygon class="cls-1" points="700 85.71 650 57.14 600 85.71 650 114.29 700 85.71"/><polygon class="cls-1" points="650 171.43 700 142.86 650 114.29 600 142.86 650 171.43"/><polygon class="cls-1" points="650 228.57 700 200 650 171.43 600 200 650 228.57"/><polygon class="cls-1" points="650 285.71 700 257.14 650 228.57 600 257.14 650 285.71"/><polygon class="cls-1" points="650 342.86 700 314.29 650 285.71 600 314.29 650 342.86"/><polygon class="cls-1" points="650 400 700 371.43 650 342.86 600 371.43 650 400"/><polygon class="cls-1" points="650 457.14 700 428.57 650 400 600 428.57 650 457.14"/><polygon class="cls-1" points="650 514.29 700 485.71 650 457.14 600 485.71 650 514.29"/><polygon class="cls-1" points="650 571.43 700 542.86 650 514.29 600 542.86 650 571.43"/><polygon class="cls-1" points="650 628.57 700 600 650 571.43 600 600 650 628.57"/><polygon class="cls-1" points="650 685.71 700 657.14 650 628.57 600 657.14 650 685.71"/><polygon class="cls-1" points="650 742.86 700 714.29 650 685.71 600 714.29 650 742.86"/><polygon class="cls-1" points="650 800 700 771.43 650 742.86 600 771.43 650 800"/><polygon class="cls-1" points="650 857.14 700 828.57 650 800 600 828.57 650 857.14"/><polygon class="cls-1" points="650 914.29 700 885.71 650 857.14 600 885.71 650 914.29"/><polygon class="cls-1" points="650 971.43 700 942.86 650 914.29 600 942.86 650 971.43"/><polygon class="cls-1" points="650 1028.57 700 1000 650 971.43 600 1000 650 1028.57"/><polygon class="cls-1" points="650 1085.71 700 1057.14 650 1028.57 600 1057.14 650 1085.71"/><polygon class="cls-1" points="650 1085.71 600 1114.29 650 1142.86 700 1114.29 650 1085.71"/><polygon class="cls-1" points="700 1171.43 650 1142.86 600 1171.43 650 1200 700 1171.43"/><polygon class="cls-1" points="600 28.57 550 0 500 28.57 550 57.14 600 28.57"/><polygon class="cls-1" points="600 85.71 550 57.14 500 85.71 550 114.29 600 85.71"/><polygon class="cls-1" points="600 142.86 550 114.29 500 142.86 550 171.43 600 142.86"/><polygon class="cls-1" points="550 228.57 600 200 550 171.43 500 200 550 228.57"/><polygon class="cls-1" points="550 285.71 600 257.14 550 228.57 500 257.14 550 285.71"/><polygon class="cls-1" points="550 342.86 600 314.29 550 285.71 500 314.29 550 342.86"/><polygon class="cls-1" points="550 400 600 371.43 550 342.86 500 371.43 550 400"/><polygon class="cls-1" points="550 457.14 600 428.57 550 400 500 428.57 550 457.14"/><polygon class="cls-1" points="550 514.29 600 485.71 550 457.14 500 485.71 550 514.29"/><polygon class="cls-1" points="550 571.43 600 542.86 550 514.29 500 542.86 550 571.43"/><polygon class="cls-1" points="550 628.57 600 600 550 571.43 500 600 550 628.57"/><polygon class="cls-1" points="550 685.71 600 657.14 550 628.57 500 657.14 550 685.71"/><polygon class="cls-1" points="550 742.86 600 714.29 550 685.71 500 714.29 550 742.86"/><polygon class="cls-1" points="550 800 600 771.43 550 742.86 500 771.43 550 800"/><polygon class="cls-1" points="550 857.14 600 828.57 550 800 500 828.57 550 857.14"/><polygon class="cls-1" points="550 914.29 600 885.71 550 857.14 500 885.71 550 914.29"/><polygon class="cls-1" points="550 971.43 600 942.86 550 914.29 500 942.86 550 971.43"/><polygon class="cls-1" points="550 1028.57 600 1000 550 971.43 500 1000 550 1028.57"/><polygon class="cls-1" points="500 1057.14 550 1085.71 600 1057.14 550 1028.57 500 1057.14"/><polygon class="cls-1" points="500 1114.29 550 1142.86 600 1114.29 550 1085.71 500 1114.29"/><polygon class="cls-1" points="500 1171.43 550 1200 600 1171.43 550 1142.86 500 1171.43"/><polygon class="cls-1" points="500 28.57 450 0 400 28.57 450 57.14 500 28.57"/><polygon class="cls-1" points="500 85.71 450 57.14 400 85.71 450 114.29 500 85.71"/><polygon class="cls-1" points="500 142.86 450 114.29 400 142.86 450 171.43 500 142.86"/><polygon class="cls-1" points="500 200 450 171.43 400 200 450 228.57 500 200"/><polygon class="cls-1" points="450 285.71 500 257.14 450 228.57 400 257.14 450 285.71"/><polygon class="cls-1" points="450 342.86 500 314.29 450 285.71 400 314.29 450 342.86"/><polygon class="cls-1" points="450 400 500 371.43 450 342.86 400 371.43 450 400"/><polygon class="cls-1" points="450 457.14 500 428.57 450 400 400 428.57 450 457.14"/><polygon class="cls-1" points="450 514.29 500 485.71 450 457.14 400 485.71 450 514.29"/><polygon class="cls-1" points="450 571.43 500 542.86 450 514.29 400 542.86 450 571.43"/><polygon class="cls-1" points="450 628.57 500 600 450 571.43 400 600 450 628.57"/><polygon class="cls-1" points="450 685.71 500 657.14 450 628.57 400 657.14 450 685.71"/><polygon class="cls-1" points="450 742.86 500 714.29 450 685.71 400 714.29 450 742.86"/><polygon class="cls-1" points="450 800 500 771.43 450 742.86 400 771.43 450 800"/><polygon class="cls-1" points="450 857.14 500 828.57 450 800 400 828.57 450 857.14"/><polygon class="cls-1" points="450 914.29 500 885.71 450 857.14 400 885.71 450 914.29"/><polygon class="cls-1" points="450 971.43 500 942.86 450 914.29 400 942.86 450 971.43"/><polygon class="cls-1" points="400 1000 450 1028.57 500 1000 450 971.43 400 1000"/><polygon class="cls-1" points="400 1057.14 450 1085.71 500 1057.14 450 1028.57 400 1057.14"/><polygon class="cls-1" points="400 1114.29 450 1142.86 500 1114.29 450 1085.71 400 1114.29"/><polygon class="cls-1" points="400 1171.43 450 1200 500 1171.43 450 1142.86 400 1171.43"/><polygon class="cls-1" points="400 28.57 350 0 300 28.57 350 57.14 400 28.57"/><polygon class="cls-1" points="400 85.71 350 57.14 300 85.71 350 114.29 400 85.71"/><polygon class="cls-1" points="400 142.86 350 114.29 300 142.86 350 171.43 400 142.86"/><polygon class="cls-1" points="350 171.43 300 200 350 228.57 400 200 350 171.43"/><polygon class="cls-1" points="350 228.57 300 257.14 350 285.71 400 257.14 350 228.57"/><polygon class="cls-1" points="350 285.71 300 314.29 350 342.86 400 314.29 350 285.71"/><polygon class="cls-1" points="350 342.86 300 371.43 350 400 400 371.43 350 342.86"/><polygon class="cls-1" points="350 400 300 428.57 350 457.14 400 428.57 350 400"/><polygon class="cls-1" points="350 457.14 300 485.71 350 514.29 400 485.71 350 457.14"/><polygon class="cls-1" points="350 514.29 300 542.86 350 571.43 400 542.86 350 514.29"/><polygon class="cls-1" points="350 571.43 300 600 350 628.57 400 600 350 571.43"/><polygon class="cls-1" points="350 628.57 300 657.14 350 685.71 400 657.14 350 628.57"/><polygon class="cls-1" points="350 685.71 300 714.29 350 742.86 400 714.29 350 685.71"/><polygon class="cls-1" points="350 742.86 300 771.43 350 800 400 771.43 350 742.86"/><polygon class="cls-1" points="350 800 300 828.57 350 857.14 400 828.57 350 800"/><polygon class="cls-1" points="350 857.14 300 885.71 350 914.29 400 885.71 350 857.14"/><polygon class="cls-1" points="350 914.29 300 942.86 350 971.43 400 942.86 350 914.29"/><polygon class="cls-1" points="300 1000 350 1028.57 400 1000 350 971.43 300 1000"/><polygon class="cls-1" points="300 1057.14 350 1085.71 400 1057.14 350 1028.57 300 1057.14"/><polygon class="cls-1" points="300 1114.29 350 1142.86 400 1114.29 350 1085.71 300 1114.29"/><polygon class="cls-1" points="300 1171.43 350 1200 400 1171.43 350 1142.86 300 1171.43"/><polygon class="cls-1" points="300 28.57 250 0 200 28.57 250 57.14 300 28.57"/><polygon class="cls-1" points="300 85.71 250 57.14 200 85.71 250 114.29 300 85.71"/><polygon class="cls-1" points="250 114.29 200 142.86 250 171.43 300 142.86 250 114.29"/><polygon class="cls-1" points="250 171.43 200 200 250 228.57 300 200 250 171.43"/><polygon class="cls-1" points="250 228.57 200 257.14 250 285.71 300 257.14 250 228.57"/><polygon class="cls-1" points="250 285.71 200 314.29 250 342.86 300 314.29 250 285.71"/><polygon class="cls-1" points="250 342.86 200 371.43 250 400 300 371.43 250 342.86"/><polygon class="cls-1" points="250 400 200 428.57 250 457.14 300 428.57 250 400"/><polygon class="cls-1" points="250 457.14 200 485.71 250 514.29 300 485.71 250 457.14"/><polygon class="cls-1" points="250 514.29 200 542.86 250 571.43 300 542.86 250 514.29"/><polygon class="cls-1" points="250 571.43 200 600 250 628.57 300 600 250 571.43"/><polygon class="cls-1" points="250 628.57 200 657.14 250 685.71 300 657.14 250 628.57"/><polygon class="cls-1" points="250 685.71 200 714.29 250 742.86 300 714.29 250 685.71"/><polygon class="cls-1" points="250 742.86 200 771.43 250 800 300 771.43 250 742.86"/><polygon class="cls-1" points="250 800 200 828.57 250 857.14 300 828.57 250 800"/><polygon class="cls-1" points="250 857.14 200 885.71 250 914.29 300 885.71 250 857.14"/><polygon class="cls-1" points="250 914.29 200 942.86 250 971.43 300 942.86 250 914.29"/><polygon class="cls-1" points="250 971.43 200 1000 250 1028.57 300 1000 250 971.43"/><polygon class="cls-1" points="200 1057.14 250 1085.71 300 1057.14 250 1028.57 200 1057.14"/><polygon class="cls-1" points="200 1114.29 250 1142.86 300 1114.29 250 1085.71 200 1114.29"/><polygon class="cls-1" points="200 1171.43 250 1200 300 1171.43 250 1142.86 200 1171.43"/><polygon class="cls-1" points="200 28.57 150 0 100 28.57 150 57.14 200 28.57"/><polygon class="cls-1" points="150 57.14 100 85.71 150 114.29 200 85.71 150 57.14"/><polygon class="cls-1" points="150 114.29 100 142.86 150 171.43 200 142.86 150 114.29"/><polygon class="cls-1" points="150 171.43 100 200 150 228.57 200 200 150 171.43"/><polygon class="cls-1" points="150 228.57 100 257.14 150 285.71 200 257.14 150 228.57"/><polygon class="cls-1" points="150 285.71 100 314.29 150 342.86 200 314.29 150 285.71"/><polygon class="cls-1" points="150 342.86 100 371.43 150 400 200 371.43 150 342.86"/><polygon class="cls-1" points="150 400 100 428.57 150 457.14 200 428.57 150 400"/><polygon class="cls-1" points="150 457.14 100 485.71 150 514.29 200 485.71 150 457.14"/><polygon class="cls-1" points="150 514.29 100 542.86 150 571.43 200 542.86 150 514.29"/><polygon class="cls-1" points="150 571.43 100 600 150 628.57 200 600 150 571.43"/><polygon class="cls-1" points="150 628.57 100 657.14 150 685.71 200 657.14 150 628.57"/><polygon class="cls-1" points="150 685.71 100 714.29 150 742.86 200 714.29 150 685.71"/><polygon class="cls-1" points="150 742.86 100 771.43 150 800 200 771.43 150 742.86"/><polygon class="cls-1" points="150 800 100 828.57 150 857.14 200 828.57 150 800"/><polygon class="cls-1" points="150 857.14 100 885.71 150 914.29 200 885.71 150 857.14"/><polygon class="cls-1" points="150 914.29 100 942.86 150 971.43 200 942.86 150 914.29"/><polygon class="cls-1" points="150 971.43 100 1000 150 1028.57 200 1000 150 971.43"/><polygon class="cls-1" points="150 1028.57 100 1057.14 150 1085.71 200 1057.14 150 1028.57"/><polygon class="cls-1" points="100 1114.29 150 1142.86 200 1114.29 150 1085.71 100 1114.29"/><polygon class="cls-1" points="100 1171.43 150 1200 200 1171.43 150 1142.86 100 1171.43"/><polygon class="cls-1" points="50 0 0 28.57 50 57.14 100 28.57 50 0"/><polygon class="cls-1" points="50 57.14 0 85.71 50 114.29 100 85.71 50 57.14"/><polygon class="cls-1" points="50 114.29 0 142.86 50 171.43 100 142.86 50 114.29"/><polygon class="cls-1" points="50 171.43 0 200 50 228.57 100 200 50 171.43"/><polygon class="cls-1" points="50 228.57 0 257.14 50 285.71 100 257.14 50 228.57"/><polygon class="cls-1" points="50 285.71 0 314.29 50 342.86 100 314.29 50 285.71"/><polygon class="cls-1" points="50 342.86 0 371.43 50 400 100 371.43 50 342.86"/><polygon class="cls-1" points="50 400 0 428.57 50 457.14 100 428.57 50 400"/><polygon class="cls-1" points="50 457.14 0 485.71 50 514.29 100 485.71 50 457.14"/><polygon class="cls-1" points="50 514.29 0 542.86 50 571.43 100 542.86 50 514.29"/><polygon class="cls-1" points="50 571.43 0 600 50 628.57 100 600 50 571.43"/><polygon class="cls-1" points="50 628.57 0 657.14 50 685.71 100 657.14 50 628.57"/><polygon class="cls-1" points="50 685.71 0 714.29 50 742.86 100 714.29 50 685.71"/><polygon class="cls-1" points="50 742.86 0 771.43 50 800 100 771.43 50 742.86"/><polygon class="cls-1" points="50 800 0 828.57 50 857.14 100 828.57 50 800"/><polygon class="cls-1" points="50 857.14 0 885.71 50 914.29 100 885.71 50 857.14"/><polygon class="cls-1" points="50 914.29 0 942.86 50 971.43 100 942.86 50 914.29"/><polygon class="cls-1" points="50 971.43 0 1000 50 1028.57 100 1000 50 971.43"/><polygon class="cls-1" points="50 1028.57 0 1057.14 50 1085.71 100 1057.14 50 1028.57"/><polygon class="cls-1" points="50 1085.71 0 1114.29 50 1142.86 100 1114.29 50 1085.71"/><polygon class="cls-1" points="0 1171.43 50 1200 100 1171.43 50 1142.86 0 1171.43"/></svg>