<svg id="Layer_1" data-name="Layer 1" xmlns="http://www.w3.org/2000/svg" viewBox="0 0 800 1200" preserveAspectRatio="none"><defs><style>.cls-1{fill:#dc0000;}</style></defs><title>Artboard 1 copy 8</title><rect class="cls-1" y="1142.86" width="61.54" height="57.14"/><rect class="cls-1" y="1028.57" width="61.54" height="57.14"/><rect class="cls-1" y="914.29" width="61.54" height="57.14"/><rect class="cls-1" x="61.54" y="971.43" width="61.54" height="57.14"/><rect class="cls-1" x="61.54" y="1085.71" width="61.54" height="57.14"/><rect class="cls-1" x="123.08" y="1142.86" width="61.54" height="57.14"/><rect class="cls-1" x="123.08" y="1028.57" width="61.54" height="57.14"/><rect class="cls-1" x="123.08" y="914.29" width="61.54" height="57.14"/><rect class="cls-1" x="184.62" y="971.43" width="61.54" height="57.14"/><rect class="cls-1" x="184.62" y="1085.71" width="61.54" height="57.14"/><rect class="cls-1" x="246.15" y="1142.86" width="61.54" height="57.14"/><rect class="cls-1" x="246.15" y="1028.57" width="61.54" height="57.14"/><rect class="cls-1" x="246.15" y="914.29" width="61.54" height="57.14"/><rect class="cls-1" y="800" width="61.54" height="57.14"/><rect class="cls-1" y="685.71" width="61.54" height="57.14"/><rect class="cls-1" x="61.54" y="742.86" width="61.54" height="57.14"/><rect class="cls-1" x="61.54" y="857.14" width="61.54" height="57.14"/><rect class="cls-1" x="123.08" y="800" width="61.54" height="57.14"/><rect class="cls-1" x="123.08" y="685.71" width="61.54" height="57.14"/><rect class="cls-1" x="184.62" y="742.86" width="61.54" height="57.14"/><rect class="cls-1" x="184.62" y="857.14" width="61.54" height="57.14"/><rect class="cls-1" x="246.15" y="800" width="61.54" height="57.14"/><rect class="cls-1" x="246.15" y="685.71" width="61.54" height="57.14"/><rect class="cls-1" y="571.43" width="61.54" height="57.14"/><rect class="cls-1" y="457.14" width="61.54" height="57.14"/><rect class="cls-1" x="61.54" y="514.29" width="61.54" height="57.14"/><rect class="cls-1" x="61.54" y="628.57" width="61.54" height="57.14"/><rect class="cls-1" x="123.08" y="571.43" width="61.54" height="57.14"/><rect class="cls-1" x="123.08" y="457.14" width="61.54" height="57.14"/><rect class="cls-1" x="184.62" y="514.29" width="61.54" height="57.14"/><rect class="cls-1" x="184.62" y="628.57" width="61.54" height="57.14"/><rect class="cls-1" x="246.15" y="571.43" width="61.54" height="57.14"/><rect class="cls-1" x="246.15" y="457.14" width="61.54" height="57.14"/><rect class="cls-1" y="342.86" width="61.54" height="57.14"/><rect class="cls-1" y="228.57" width="61.54" height="57.14"/><rect class="cls-1" x="61.54" y="285.71" width="61.54" height="57.14"/><rect class="cls-1" x="61.54" y="400" width="61.54" height="57.14"/><rect class="cls-1" x="123.08" y="342.86" width="61.54" height="57.14"/><rect class="cls-1" x="123.08" y="228.57" width="61.54" height="57.14"/><rect class="cls-1" x="184.62" y="285.71" width="61.54" height="57.14"/><rect class="cls-1" x="184.62" y="400" width="61.54" height="57.14"/><rect class="cls-1" x="246.15" y="342.86" width="61.54" height="57.14"/><rect class="cls-1" x="246.15" y="228.57" width="61.54" height="57.14"/><rect class="cls-1" y="114.29" width="61.54" height="57.14"/><rect class="cls-1" width="61.54" height="57.14"/><rect class="cls-1" x="61.54" y="57.14" width="61.54" height="57.14"/><rect class="cls-1" x="61.54" y="171.43" width="61.54" height="57.14"/><rect class="cls-1" x="123.08" y="114.29" width="61.54" height="57.14"/><rect class="cls-1" x="123.08" width="61.54" height="57.14"/><rect class="cls-1" x="184.62" y="57.14" width="61.54" height="57.14"/><rect class="cls-1" x="184.62" y="171.43" width="61.54" height="57.14"/><rect class="cls-1" x="246.15" y="114.29" width="61.54" height="57.14"/><rect class="cls-1" x="246.15" width="61.54" height="57.14"/><rect class="cls-1" x="307.69" y="971.43" width="61.54" height="57.14"/><rect class="cls-1" x="307.69" y="1085.71" width="61.54" height="57.14"/><rect class="cls-1" x="369.23" y="1142.86" width="61.54" height="57.14"/><rect class="cls-1" x="369.23" y="1028.57" width="61.54" height="57.14"/><rect class="cls-1" x="369.23" y="914.29" width="61.54" height="57.14"/><rect class="cls-1" x="430.77" y="971.43" width="61.54" height="57.14"/><rect class="cls-1" x="430.77" y="1085.71" width="61.54" height="57.14"/><rect class="cls-1" x="492.31" y="1142.86" width="61.54" height="57.14"/><rect class="cls-1" x="492.31" y="1028.57" width="61.54" height="57.14"/><rect class="cls-1" x="492.31" y="914.29" width="61.54" height="57.14"/><rect class="cls-1" x="307.69" y="742.86" width="61.54" height="57.14"/><rect class="cls-1" x="307.69" y="857.14" width="61.54" height="57.14"/><rect class="cls-1" x="369.23" y="800" width="61.54" height="57.14"/><rect class="cls-1" x="369.23" y="685.71" width="61.54" height="57.14"/><rect class="cls-1" x="430.77" y="742.86" width="61.54" height="57.14"/><rect class="cls-1" x="430.77" y="857.14" width="61.54" height="57.14"/><rect class="cls-1" x="492.31" y="800" width="61.54" height="57.14"/><rect class="cls-1" x="492.31" y="685.71" width="61.54" height="57.14"/><rect class="cls-1" x="307.69" y="514.29" width="61.54" height="57.14"/><rect class="cls-1" x="307.69" y="628.57" width="61.54" height="57.14"/><rect class="cls-1" x="369.23" y="571.43" width="61.54" height="57.14"/><rect class="cls-1" x="369.23" y="457.14" width="61.54" height="57.14"/><rect class="cls-1" x="430.77" y="514.29" width="61.54" height="57.14"/><rect class="cls-1" x="430.77" y="628.57" width="61.54" height="57.14"/><rect class="cls-1" x="492.31" y="571.43" width="61.54" height="57.14"/><rect class="cls-1" x="492.31" y="457.14" width="61.54" height="57.14"/><rect class="cls-1" x="307.69" y="285.71" width="61.54" height="57.14"/><rect class="cls-1" x="307.69" y="400" width="61.54" height="57.14"/><rect class="cls-1" x="369.23" y="342.86" width="61.54" height="57.14"/><rect class="cls-1" x="369.23" y="228.57" width="61.54" height="57.14"/><rect class="cls-1" x="430.77" y="285.71" width="61.54" height="57.14"/><rect class="cls-1" x="430.77" y="400" width="61.54" height="57.14"/><rect class="cls-1" x="492.31" y="342.86" width="61.54" height="57.14"/><rect class="cls-1" x="492.31" y="228.57" width="61.54" height="57.14"/><rect class="cls-1" x="307.69" y="57.14" width="61.54" height="57.14"/><rect class="cls-1" x="307.69" y="171.43" width="61.54" height="57.14"/><rect class="cls-1" x="369.23" y="114.29" width="61.54" height="57.14"/><rect class="cls-1" x="369.23" width="61.54" height="57.14"/><rect class="cls-1" x="430.77" y="57.14" width="61.54" height="57.14"/><rect class="cls-1" x="430.77" y="171.43" width="61.54" height="57.14"/><rect class="cls-1" x="492.31" y="114.29" width="61.54" height="57.14"/><rect class="cls-1" x="492.31" width="61.54" height="57.14"/><rect class="cls-1" x="553.85" y="971.43" width="61.54" height="57.14"/><rect class="cls-1" x="553.85" y="1085.71" width="61.54" height="57.14"/><rect class="cls-1" x="615.38" y="1142.86" width="61.54" height="57.14"/><rect class="cls-1" x="615.38" y="1028.57" width="61.54" height="57.14"/><rect class="cls-1" x="615.38" y="914.29" width="61.54" height="57.14"/><rect class="cls-1" x="676.92" y="971.43" width="61.54" height="57.14"/><rect class="cls-1" x="676.92" y="1085.71" width="61.54" height="57.14"/><rect class="cls-1" x="738.46" y="1142.86" width="61.54" height="57.14"/><rect class="cls-1" x="738.46" y="1028.57" width="61.54" height="57.14"/><rect class="cls-1" x="738.46" y="914.29" width="61.54" height="57.14"/><rect class="cls-1" x="553.85" y="742.86" width="61.54" height="57.14"/><rect class="cls-1" x="553.85" y="857.14" width="61.54" height="57.14"/><rect class="cls-1" x="615.38" y="800" width="61.54" height="57.14"/><rect class="cls-1" x="615.38" y="685.71" width="61.54" height="57.14"/><rect class="cls-1" x="676.92" y="742.86" width="61.54" height="57.14"/><rect class="cls-1" x="676.92" y="857.14" width="61.54" height="57.14"/><rect class="cls-1" x="738.46" y="800" width="61.54" height="57.14"/><rect class="cls-1" x="738.46" y="685.71" width="61.54" height="57.14"/><rect class="cls-1" x="553.85" y="514.29" width="61.54" height="57.14"/><rect class="cls-1" x="553.85" y="628.57" width="61.54" height="57.14"/><rect class="cls-1" x="615.38" y="571.43" width="61.54" height="57.14"/><rect class="cls-1" x="615.38" y="457.14" width="61.54" height="57.14"/><rect class="cls-1" x="676.92" y="514.29" width="61.54" height="57.14"/><rect class="cls-1" x="676.92" y="628.57" width="61.54" height="57.14"/><rect class="cls-1" x="738.46" y="571.43" width="61.54" height="57.14"/><rect class="cls-1" x="738.46" y="457.14" width="61.54" height="57.14"/><rect class="cls-1" x="553.85" y="285.71" width="61.54" height="57.14"/><rect class="cls-1" x="553.85" y="400" width="61.54" height="57.14"/><rect class="cls-1" x="615.38" y="342.86" width="61.54" height="57.14"/><rect class="cls-1" x="615.38" y="228.57" width="61.54" height="57.14"/><rect class="cls-1" x="676.92" y="285.71" width="61.54" height="57.14"/><rect class="cls-1" x="676.92" y="400" width="61.54" height="57.14"/><rect class="cls-1" x="738.46" y="342.86" width="61.54" height="57.14"/><rect class="cls-1" x="738.46" y="228.57" width="61.54" height="57.14"/><rect class="cls-1" x="553.85" y="57.14" width="61.54" height="57.14"/><rect class="cls-1" x="553.85" y="171.43" width="61.54" height="57.14"/><rect class="cls-1" x="615.38" y="114.29" width="61.54" height="57.14"/><rect class="cls-1" x="615.38" width="61.54" height="57.14"/><rect class="cls-1" x="676.92" y="57.14" width="61.54" height="57.14"/><rect class="cls-1" x="676.92" y="171.43" width="61.54" height="57.14"/><rect class="cls-1" x="738.46" y="114.29" width="61.54" height="57.14"/><rect class="cls-1" x="738.46" width="61.54" height="57.14"/></svg>