<svg id="Layer_1" data-name="Layer 1" xmlns="http://www.w3.org/2000/svg" viewBox="0 0 800 1200" preserveAspectRatio="none"><defs><style>.cls-1{fill:#079907;}.cls-2{fill:#f2db0c;}</style></defs><title>Artboard 1 copy 30</title><polygon class="cls-1" points="800 1136.9 800 63.1 442.06 600 800 1136.9"/><polygon points="757.94 0 42.06 0 400 536.9 757.94 0"/><polygon points="42.06 1200 757.94 1200 400 663.1 42.06 1200"/><polygon class="cls-1" points="0 63.1 0 1136.9 357.94 600 0 63.1"/><polygon class="cls-2" points="42.06 1200 400 663.1 757.94 1200 800 1200 800 1136.9 442.06 600 800 63.1 800 0 757.94 0 400 536.9 42.06 0 0 0 0 63.1 357.94 600 0 1136.9 0 1200 42.06 1200"/></svg>