<svg id="Layer_1" data-name="Layer 1" xmlns="http://www.w3.org/2000/svg" viewBox="0 0 800 1200" preserveAspectRatio="none"><defs><style>.cls-1{fill:#f00f00;}.cls-2{fill:#fff;}</style></defs><title>Artboard 1 copy 24@2x</title><rect class="cls-1" x="-200" y="200" width="1200" height="800" transform="translate(-200 1000) rotate(-90)"/><polygon class="cls-2" points="559.79 328.88 504.95 346.7 504.95 404.37 471.05 357.72 416.2 375.54 450.1 328.88 416.2 282.23 471.05 300.05 504.95 253.39 504.95 311.06 559.79 328.88"/><polygon class="cls-2" points="559.79 509.63 504.95 527.45 504.95 585.12 471.05 538.46 416.2 556.28 450.1 509.63 416.2 462.97 471.05 480.79 504.95 434.14 504.95 491.81 559.79 509.63"/><polygon class="cls-2" points="559.79 690.37 504.95 708.19 504.95 765.86 471.05 719.21 416.2 737.03 450.1 690.37 416.2 643.72 471.05 661.54 504.95 614.88 504.95 672.55 559.79 690.37"/><polygon class="cls-2" points="559.79 871.12 504.95 888.94 504.95 946.61 471.05 899.95 416.2 917.77 450.1 871.12 416.2 824.46 471.05 842.28 504.95 795.63 504.95 853.3 559.79 871.12"/><polygon class="cls-2" points="383.8 419.25 328.95 437.08 328.95 494.75 295.05 448.09 240.21 465.91 274.1 419.25 240.21 372.6 295.05 390.42 328.95 343.77 328.95 401.44 383.8 419.25"/><polygon class="cls-2" points="383.8 600 328.95 617.82 328.95 675.49 295.05 628.84 240.21 646.65 274.1 600 240.21 553.35 295.05 571.16 328.95 524.51 328.95 582.18 383.8 600"/><polygon class="cls-2" points="383.8 780.75 328.95 798.57 328.95 856.23 295.05 809.58 240.21 827.4 274.1 780.75 240.21 734.09 295.05 751.91 328.95 705.25 328.95 762.92 383.8 780.75"/></svg>