<svg id="Layer_1" data-name="Layer 1" xmlns="http://www.w3.org/2000/svg" viewBox="0 0 800 1200" preserveAspectRatio="none"><defs><style>.cls-1{fill:#b71313;}.cls-2{fill:#f2db0c;}</style></defs><title>Artboard 1 copy 29</title><rect class="cls-1" width="800" height="1200"/><path class="cls-2" d="M463.92,295.68v25.8l-70,41.77q-2.63,1.4-5.7,3t-5.7,3q-3.16,1.58-6.14,2.81v.35l7.55-.35q3.33-.18,7.11-.26t7.11-.09h65.81v25.1H338.43V372.2l69.32-42.82a52.85,52.85,0,0,1,5.53-3.07q3.07-1.49,5.7-2.9,3.16-1.58,6.14-3v-.35l-7.72.35q-3.34.17-7.11.26t-7.11.09H338.43v-25.1ZM335.63,471.18a62,62,0,0,1,4.91-25.1A55.59,55.59,0,0,1,354.14,427a59.76,59.76,0,0,1,20.71-12.11,82.76,82.76,0,0,1,52.12,0A60.75,60.75,0,0,1,447.77,427a55.1,55.1,0,0,1,13.69,19.13,66.32,66.32,0,0,1,0,50.11,55.33,55.33,0,0,1-13.69,19A60.71,60.71,0,0,1,427,527.34a82.72,82.72,0,0,1-52.12,0,59.73,59.73,0,0,1-20.71-12.11,55.83,55.83,0,0,1-13.6-19A61.39,61.39,0,0,1,335.63,471.18Zm20.88.18a30.2,30.2,0,0,0,12.81,25.71,41.76,41.76,0,0,0,14.13,6.41,73.83,73.83,0,0,0,35,0,42.85,42.85,0,0,0,14.13-6.41,30.8,30.8,0,0,0,9.48-10.71,31.41,31.41,0,0,0,3.42-15,31.91,31.91,0,0,0-3.42-15.09,31.3,31.3,0,0,0-9.48-10.88,43,43,0,0,0-14.13-6.58,70.9,70.9,0,0,0-35,0,41.92,41.92,0,0,0-14.13,6.58,30.83,30.83,0,0,0-12.81,26ZM463.92,668.9v49a52.61,52.61,0,0,1-4.83,22.81,51.28,51.28,0,0,1-13.34,17.38,60.11,60.11,0,0,1-20.27,11.06A81.77,81.77,0,0,1,399.86,773a76.39,76.39,0,0,1-28.17-5,50.05,50.05,0,0,1-30.1-31.15,64.3,64.3,0,0,1-3.16-21.06V668.9ZM360.37,714q0,17.9,10.35,25.54t29.13,7.63a68.39,68.39,0,0,0,17.11-2A38.9,38.9,0,0,0,430.4,739a28.51,28.51,0,0,0,8.69-10.18,30.87,30.87,0,0,0,3.07-14.13V694.35H360.37ZM335.63,843.95a62,62,0,0,1,4.91-25.1,55.6,55.6,0,0,1,13.6-19.13,59.73,59.73,0,0,1,20.71-12.11,82.72,82.72,0,0,1,52.12,0,60.71,60.71,0,0,1,20.8,12.11,55.11,55.11,0,0,1,13.69,19.13,66.32,66.32,0,0,1,0,50.11,55.3,55.3,0,0,1-13.69,19A60.72,60.72,0,0,1,427,900.11a82.76,82.76,0,0,1-52.12,0A59.73,59.73,0,0,1,354.14,888a55.79,55.79,0,0,1-13.6-19A61.39,61.39,0,0,1,335.63,843.95Zm20.88.17a30.2,30.2,0,0,0,12.81,25.71,41.73,41.73,0,0,0,14.13,6.41,73.83,73.83,0,0,0,35,0,42.81,42.81,0,0,0,14.13-6.41,30.78,30.78,0,0,0,9.48-10.71,31.4,31.4,0,0,0,3.42-15A31.9,31.9,0,0,0,442.07,829a31.28,31.28,0,0,0-9.48-10.88,43.08,43.08,0,0,0-14.13-6.58,71,71,0,0,0-35,0,42,42,0,0,0-14.13,6.58,30.83,30.83,0,0,0-12.81,26ZM440.94,598l6.26-7.82c1.75-2.18,43.44-53.45,97.58-53.45a61.26,61.26,0,1,1,0,122.53c-54.14,0-95.84-51.26-97.58-53.45ZM581,598a36.3,36.3,0,0,0-36.26-36.26c-31.07,0-58.45,23.57-70.93,36.24,12.51,12.66,40,36.28,70.93,36.28A36.3,36.3,0,0,0,581,598ZM194,598a61.33,61.33,0,0,1,61.26-61.26c54.14,0,95.84,51.26,97.58,53.45l6.26,7.82-6.26,7.82c-1.75,2.18-43.44,53.45-97.58,53.45A61.33,61.33,0,0,1,194,598Zm132.19,0c-12.51-12.66-40-36.28-70.93-36.28a36.26,36.26,0,1,0,0,72.53C286.28,634.26,313.67,610.69,326.14,598Zm87.32,40.56,24.62-4.34-13.54-76.81-24.62,4.34Zm-38,0,24.62-4.34-13.54-76.81-24.62,4.34Z"/></svg>