<svg id="Layer_1" data-name="Layer 1" xmlns="http://www.w3.org/2000/svg" viewBox="0 0 800 1200" preserveAspectRatio="none"><defs><style>.cls-1{fill:#163fc1;}.cls-2{fill:#fff;}</style></defs><title>Artboard 1 copy 16</title><rect class="cls-1" x="-200" y="200" width="1200" height="800" transform="translate(1000 200) rotate(90)"/><polygon class="cls-2" points="764.24 94.43 730.29 83.4 730.29 47.71 709.31 76.58 675.37 65.55 696.35 94.43 675.37 123.3 709.31 112.27 730.29 141.15 730.29 105.46 764.24 94.43"/><polygon class="cls-2" points="604.34 94.43 570.39 83.4 570.39 47.71 549.41 76.58 515.47 65.55 536.45 94.43 515.47 123.3 549.41 112.27 570.39 141.15 570.39 105.46 604.34 94.43"/><polygon class="cls-2" points="444.43 94.43 410.49 83.4 410.49 47.71 389.51 76.58 355.57 65.55 376.55 94.43 355.57 123.3 389.51 112.27 410.49 141.15 410.49 105.46 444.43 94.43"/><polygon class="cls-2" points="284.53 94.43 250.59 83.4 250.59 47.71 229.61 76.58 195.66 65.55 216.64 94.43 195.66 123.3 229.61 112.27 250.59 141.15 250.59 105.46 284.53 94.43"/><polygon class="cls-2" points="90.69 105.46 124.63 94.43 90.69 83.4 90.69 47.71 69.71 76.58 35.76 65.55 56.74 94.43 35.76 123.3 69.71 112.27 90.69 141.15 90.69 105.46"/><polygon class="cls-2" points="684.28 195.54 650.34 184.51 650.34 148.82 629.36 177.7 595.42 166.67 616.4 195.54 595.42 224.42 629.36 213.39 650.34 242.26 650.34 206.57 684.28 195.54"/><polygon class="cls-2" points="524.38 195.54 490.44 184.51 490.44 148.82 469.46 177.7 435.52 166.67 456.5 195.54 435.52 224.42 469.46 213.39 490.44 242.26 490.44 206.57 524.38 195.54"/><polygon class="cls-2" points="364.48 195.54 330.54 184.51 330.54 148.82 309.56 177.7 275.62 166.67 296.59 195.54 275.62 224.42 309.56 213.39 330.54 242.26 330.54 206.57 364.48 195.54"/><polygon class="cls-2" points="170.64 206.57 204.58 195.54 170.64 184.51 170.64 148.82 149.66 177.7 115.72 166.67 136.69 195.54 115.72 224.42 149.66 213.39 170.64 242.26 170.64 206.57"/><polygon class="cls-2" points="764.24 296.66 730.29 285.63 730.29 249.94 709.31 278.81 675.37 267.78 696.35 296.66 675.37 325.53 709.31 314.5 730.29 343.38 730.29 307.69 764.24 296.66"/><polygon class="cls-2" points="604.34 296.66 570.39 285.63 570.39 249.94 549.41 278.81 515.47 267.78 536.45 296.66 515.47 325.53 549.41 314.5 570.39 343.38 570.39 307.69 604.34 296.66"/><polygon class="cls-2" points="444.43 296.66 410.49 285.63 410.49 249.94 389.51 278.81 355.57 267.78 376.55 296.66 355.57 325.53 389.51 314.5 410.49 343.38 410.49 307.69 444.43 296.66"/><polygon class="cls-2" points="284.53 296.66 250.59 285.63 250.59 249.94 229.61 278.81 195.66 267.78 216.64 296.66 195.66 325.53 229.61 314.5 250.59 343.38 250.59 307.69 284.53 296.66"/><polygon class="cls-2" points="90.69 307.69 124.63 296.66 90.69 285.63 90.69 249.94 69.71 278.81 35.76 267.78 56.74 296.66 35.76 325.53 69.71 314.5 90.69 343.38 90.69 307.69"/><polygon class="cls-2" points="684.28 397.77 650.34 386.74 650.34 351.05 629.36 379.93 595.42 368.9 616.4 397.77 595.42 426.64 629.36 415.62 650.34 444.49 650.34 408.8 684.28 397.77"/><polygon class="cls-2" points="524.38 397.77 490.44 386.74 490.44 351.05 469.46 379.93 435.52 368.9 456.5 397.77 435.52 426.64 469.46 415.62 490.44 444.49 490.44 408.8 524.38 397.77"/><polygon class="cls-2" points="364.48 397.77 330.54 386.74 330.54 351.05 309.56 379.93 275.62 368.9 296.59 397.77 275.62 426.64 309.56 415.62 330.54 444.49 330.54 408.8 364.48 397.77"/><polygon class="cls-2" points="170.64 408.8 204.58 397.77 170.64 386.74 170.64 351.05 149.66 379.93 115.72 368.9 136.69 397.77 115.72 426.64 149.66 415.62 170.64 444.49 170.64 408.8"/><polygon class="cls-2" points="764.24 498.88 730.29 487.86 730.29 452.17 709.31 481.04 675.37 470.01 696.35 498.88 675.37 527.76 709.31 516.73 730.29 545.61 730.29 509.91 764.24 498.88"/><polygon class="cls-2" points="604.34 498.88 570.39 487.86 570.39 452.17 549.41 481.04 515.47 470.01 536.45 498.88 515.47 527.76 549.41 516.73 570.39 545.61 570.39 509.91 604.34 498.88"/><polygon class="cls-2" points="444.43 498.88 410.49 487.86 410.49 452.17 389.51 481.04 355.57 470.01 376.55 498.88 355.57 527.76 389.51 516.73 410.49 545.61 410.49 509.91 444.43 498.88"/><polygon class="cls-2" points="284.53 498.88 250.59 487.86 250.59 452.17 229.61 481.04 195.66 470.01 216.64 498.88 195.66 527.76 229.61 516.73 250.59 545.61 250.59 509.91 284.53 498.88"/><polygon class="cls-2" points="90.69 509.91 124.63 498.88 90.69 487.86 90.69 452.17 69.71 481.04 35.76 470.01 56.74 498.88 35.76 527.76 69.71 516.73 90.69 545.61 90.69 509.91"/><polygon class="cls-2" points="684.28 600 650.34 588.97 650.34 553.28 629.36 582.15 595.42 571.13 616.4 600 595.42 628.88 629.36 617.85 650.34 646.72 650.34 611.03 684.28 600"/><polygon class="cls-2" points="524.38 600 490.44 588.97 490.44 553.28 469.46 582.15 435.52 571.13 456.5 600 435.52 628.88 469.46 617.85 490.44 646.72 490.44 611.03 524.38 600"/><polygon class="cls-2" points="364.48 600 330.54 588.97 330.54 553.28 309.56 582.15 275.62 571.13 296.59 600 275.62 628.88 309.56 617.85 330.54 646.72 330.54 611.03 364.48 600"/><polygon class="cls-2" points="170.64 611.03 204.58 600 170.64 588.97 170.64 553.28 149.66 582.15 115.72 571.13 136.69 600 115.72 628.88 149.66 617.85 170.64 646.72 170.64 611.03"/><polygon class="cls-2" points="764.24 701.12 730.29 690.09 730.29 654.39 709.31 683.27 675.37 672.24 696.35 701.12 675.37 729.99 709.31 718.96 730.29 747.83 730.29 712.14 764.24 701.12"/><polygon class="cls-2" points="604.34 701.12 570.39 690.09 570.39 654.39 549.41 683.27 515.47 672.24 536.45 701.12 515.47 729.99 549.41 718.96 570.39 747.83 570.39 712.14 604.34 701.12"/><polygon class="cls-2" points="444.43 701.12 410.49 690.09 410.49 654.39 389.51 683.27 355.57 672.24 376.55 701.12 355.57 729.99 389.51 718.96 410.49 747.83 410.49 712.14 444.43 701.12"/><polygon class="cls-2" points="284.53 701.12 250.59 690.09 250.59 654.39 229.61 683.27 195.66 672.24 216.64 701.12 195.66 729.99 229.61 718.96 250.59 747.83 250.59 712.14 284.53 701.12"/><polygon class="cls-2" points="90.69 712.14 124.63 701.12 90.69 690.09 90.69 654.39 69.71 683.27 35.76 672.24 56.74 701.12 35.76 729.99 69.71 718.96 90.69 747.83 90.69 712.14"/><polygon class="cls-2" points="684.28 802.23 650.34 791.2 650.34 755.51 629.36 784.38 595.42 773.36 616.4 802.23 595.42 831.1 629.36 820.08 650.34 848.95 650.34 813.26 684.28 802.23"/><polygon class="cls-2" points="524.38 802.23 490.44 791.2 490.44 755.51 469.46 784.38 435.52 773.36 456.5 802.23 435.52 831.1 469.46 820.08 490.44 848.95 490.44 813.26 524.38 802.23"/><polygon class="cls-2" points="364.48 802.23 330.54 791.2 330.54 755.51 309.56 784.38 275.62 773.36 296.59 802.23 275.62 831.1 309.56 820.08 330.54 848.95 330.54 813.26 364.48 802.23"/><polygon class="cls-2" points="170.64 813.26 204.58 802.23 170.64 791.2 170.64 755.51 149.66 784.38 115.72 773.36 136.69 802.23 115.72 831.1 149.66 820.08 170.64 848.95 170.64 813.26"/><polygon class="cls-2" points="764.24 903.34 730.29 892.32 730.29 856.62 709.31 885.5 675.37 874.47 696.35 903.34 675.37 932.22 709.31 921.19 730.29 950.06 730.29 914.37 764.24 903.34"/><polygon class="cls-2" points="604.34 903.34 570.39 892.32 570.39 856.62 549.41 885.5 515.47 874.47 536.45 903.34 515.47 932.22 549.41 921.19 570.39 950.06 570.39 914.37 604.34 903.34"/><polygon class="cls-2" points="444.43 903.34 410.49 892.32 410.49 856.62 389.51 885.5 355.57 874.47 376.55 903.34 355.57 932.22 389.51 921.19 410.49 950.06 410.49 914.37 444.43 903.34"/><polygon class="cls-2" points="284.53 903.34 250.59 892.32 250.59 856.62 229.61 885.5 195.66 874.47 216.64 903.34 195.66 932.22 229.61 921.19 250.59 950.06 250.59 914.37 284.53 903.34"/><polygon class="cls-2" points="90.69 914.37 124.63 903.34 90.69 892.32 90.69 856.62 69.71 885.5 35.76 874.47 56.74 903.34 35.76 932.22 69.71 921.19 90.69 950.06 90.69 914.37"/><polygon class="cls-2" points="684.28 1004.46 650.34 993.43 650.34 957.74 629.36 986.61 595.42 975.58 616.4 1004.46 595.42 1033.33 629.36 1022.3 650.34 1051.18 650.34 1015.49 684.28 1004.46"/><polygon class="cls-2" points="524.38 1004.46 490.44 993.43 490.44 957.74 469.46 986.61 435.52 975.58 456.5 1004.46 435.52 1033.33 469.46 1022.3 490.44 1051.18 490.44 1015.49 524.38 1004.46"/><polygon class="cls-2" points="364.48 1004.46 330.54 993.43 330.54 957.74 309.56 986.61 275.62 975.58 296.59 1004.46 275.62 1033.33 309.56 1022.3 330.54 1051.18 330.54 1015.49 364.48 1004.46"/><polygon class="cls-2" points="170.64 1015.49 204.58 1004.46 170.64 993.43 170.64 957.74 149.66 986.61 115.72 975.58 136.69 1004.46 115.72 1033.33 149.66 1022.3 170.64 1051.18 170.64 1015.49"/><polygon class="cls-2" points="675.37 1076.7 696.35 1105.57 675.37 1134.45 709.31 1123.42 730.29 1152.29 730.29 1116.6 764.24 1105.57 730.29 1094.54 730.29 1058.85 709.31 1087.73 675.37 1076.7"/><polygon class="cls-2" points="604.34 1105.57 570.39 1094.54 570.39 1058.85 549.41 1087.73 515.47 1076.7 536.45 1105.57 515.47 1134.45 549.41 1123.42 570.39 1152.29 570.39 1116.6 604.34 1105.57"/><polygon class="cls-2" points="444.43 1105.57 410.49 1094.54 410.49 1058.85 389.51 1087.73 355.57 1076.7 376.55 1105.57 355.57 1134.45 389.51 1123.42 410.49 1152.29 410.49 1116.6 444.43 1105.57"/><polygon class="cls-2" points="284.53 1105.57 250.59 1094.54 250.59 1058.85 229.61 1087.73 195.66 1076.7 216.64 1105.57 195.66 1134.45 229.61 1123.42 250.59 1152.29 250.59 1116.6 284.53 1105.57"/><polygon class="cls-2" points="90.69 1116.6 124.63 1105.57 90.69 1094.54 90.69 1058.85 69.71 1087.73 35.76 1076.7 56.74 1105.57 35.76 1134.45 69.71 1123.42 90.69 1152.29 90.69 1116.6"/></svg>