<svg id="Layer_1" data-name="Layer 1" xmlns="http://www.w3.org/2000/svg" viewBox="0 0 1200 800" preserveAspectRatio="none"><defs><style>.cls-1{fill:#49a5e5;}</style></defs><title>Artboard 1 copy 2</title><polygon class="cls-1" points="28.57 0 0 50 28.57 100 57.14 50 28.57 0"/><polygon class="cls-1" points="114.29 50 85.71 0 57.14 50 85.71 100 114.29 50"/><polygon class="cls-1" points="171.43 50 142.86 0 114.29 50 142.86 100 171.43 50"/><polygon class="cls-1" points="228.57 50 200 0 171.43 50 200 100 228.57 50"/><polygon class="cls-1" points="285.71 50 257.14 0 228.57 50 257.14 100 285.71 50"/><polygon class="cls-1" points="342.86 50 314.29 0 285.71 50 314.29 100 342.86 50"/><polygon class="cls-1" points="400 50 371.43 0 342.86 50 371.43 100 400 50"/><polygon class="cls-1" points="457.14 50 428.57 0 400 50 428.57 100 457.14 50"/><polygon class="cls-1" points="514.29 50 485.71 0 457.14 50 485.71 100 514.29 50"/><polygon class="cls-1" points="571.43 50 542.86 0 514.29 50 542.86 100 571.43 50"/><polygon class="cls-1" points="628.57 50 600 0 571.43 50 600 100 628.57 50"/><polygon class="cls-1" points="685.71 50 657.14 0 628.57 50 657.14 100 685.71 50"/><polygon class="cls-1" points="742.86 50 714.29 0 685.71 50 714.29 100 742.86 50"/><polygon class="cls-1" points="800 50 771.43 0 742.86 50 771.43 100 800 50"/><polygon class="cls-1" points="857.14 50 828.57 0 800 50 828.57 100 857.14 50"/><polygon class="cls-1" points="914.29 50 885.71 0 857.14 50 885.71 100 914.29 50"/><polygon class="cls-1" points="971.43 50 942.86 0 914.29 50 942.86 100 971.43 50"/><polygon class="cls-1" points="1028.57 50 1000 0 971.43 50 1000 100 1028.57 50"/><polygon class="cls-1" points="1085.71 50 1057.14 0 1028.57 50 1057.14 100 1085.71 50"/><polygon class="cls-1" points="1142.86 50 1114.29 0 1085.71 50 1114.29 100 1142.86 50"/><polygon class="cls-1" points="1200 50 1171.43 0 1142.86 50 1171.43 100 1200 50"/><polygon class="cls-1" points="28.57 100 0 150 28.57 200 57.14 150 28.57 100"/><polygon class="cls-1" points="85.71 100 57.14 150 85.71 200 114.29 150 85.71 100"/><polygon class="cls-1" points="171.43 150 142.86 100 114.29 150 142.86 200 171.43 150"/><polygon class="cls-1" points="228.57 150 200 100 171.43 150 200 200 228.57 150"/><polygon class="cls-1" points="285.71 150 257.14 100 228.57 150 257.14 200 285.71 150"/><polygon class="cls-1" points="342.86 150 314.29 100 285.71 150 314.29 200 342.86 150"/><polygon class="cls-1" points="400 150 371.43 100 342.86 150 371.43 200 400 150"/><polygon class="cls-1" points="457.14 150 428.57 100 400 150 428.57 200 457.14 150"/><polygon class="cls-1" points="514.29 150 485.71 100 457.14 150 485.71 200 514.29 150"/><polygon class="cls-1" points="571.43 150 542.86 100 514.29 150 542.86 200 571.43 150"/><polygon class="cls-1" points="628.57 150 600 100 571.43 150 600 200 628.57 150"/><polygon class="cls-1" points="685.71 150 657.14 100 628.57 150 657.14 200 685.71 150"/><polygon class="cls-1" points="742.86 150 714.29 100 685.71 150 714.29 200 742.86 150"/><polygon class="cls-1" points="800 150 771.43 100 742.86 150 771.43 200 800 150"/><polygon class="cls-1" points="857.14 150 828.57 100 800 150 828.57 200 857.14 150"/><polygon class="cls-1" points="914.29 150 885.71 100 857.14 150 885.71 200 914.29 150"/><polygon class="cls-1" points="971.43 150 942.86 100 914.29 150 942.86 200 971.43 150"/><polygon class="cls-1" points="1028.57 150 1000 100 971.43 150 1000 200 1028.57 150"/><polygon class="cls-1" points="1085.71 150 1057.14 100 1028.57 150 1057.14 200 1085.71 150"/><polygon class="cls-1" points="1085.71 150 1114.29 200 1142.86 150 1114.29 100 1085.71 150"/><polygon class="cls-1" points="1171.43 100 1142.86 150 1171.43 200 1200 150 1171.43 100"/><polygon class="cls-1" points="28.57 200 0 250 28.57 300 57.14 250 28.57 200"/><polygon class="cls-1" points="85.71 200 57.14 250 85.71 300 114.29 250 85.71 200"/><polygon class="cls-1" points="142.86 200 114.29 250 142.86 300 171.43 250 142.86 200"/><polygon class="cls-1" points="228.57 250 200 200 171.43 250 200 300 228.57 250"/><polygon class="cls-1" points="285.71 250 257.14 200 228.57 250 257.14 300 285.71 250"/><polygon class="cls-1" points="342.86 250 314.29 200 285.71 250 314.29 300 342.86 250"/><polygon class="cls-1" points="400 250 371.43 200 342.86 250 371.43 300 400 250"/><polygon class="cls-1" points="457.14 250 428.57 200 400 250 428.57 300 457.14 250"/><polygon class="cls-1" points="514.29 250 485.71 200 457.14 250 485.71 300 514.29 250"/><polygon class="cls-1" points="571.43 250 542.86 200 514.29 250 542.86 300 571.43 250"/><polygon class="cls-1" points="628.57 250 600 200 571.43 250 600 300 628.57 250"/><polygon class="cls-1" points="685.71 250 657.14 200 628.57 250 657.14 300 685.71 250"/><polygon class="cls-1" points="742.86 250 714.29 200 685.71 250 714.29 300 742.86 250"/><polygon class="cls-1" points="800 250 771.43 200 742.86 250 771.43 300 800 250"/><polygon class="cls-1" points="857.14 250 828.57 200 800 250 828.57 300 857.14 250"/><polygon class="cls-1" points="914.29 250 885.71 200 857.14 250 885.71 300 914.29 250"/><polygon class="cls-1" points="971.43 250 942.86 200 914.29 250 942.86 300 971.43 250"/><polygon class="cls-1" points="1028.57 250 1000 200 971.43 250 1000 300 1028.57 250"/><polygon class="cls-1" points="1057.14 300 1085.71 250 1057.14 200 1028.57 250 1057.14 300"/><polygon class="cls-1" points="1114.29 300 1142.86 250 1114.29 200 1085.71 250 1114.29 300"/><polygon class="cls-1" points="1171.43 300 1200 250 1171.43 200 1142.86 250 1171.43 300"/><polygon class="cls-1" points="28.57 300 0 350 28.57 400 57.14 350 28.57 300"/><polygon class="cls-1" points="85.71 300 57.14 350 85.71 400 114.29 350 85.71 300"/><polygon class="cls-1" points="142.86 300 114.29 350 142.86 400 171.43 350 142.86 300"/><polygon class="cls-1" points="200 300 171.43 350 200 400 228.57 350 200 300"/><polygon class="cls-1" points="285.71 350 257.14 300 228.57 350 257.14 400 285.71 350"/><polygon class="cls-1" points="342.86 350 314.29 300 285.71 350 314.29 400 342.86 350"/><polygon class="cls-1" points="400 350 371.43 300 342.86 350 371.43 400 400 350"/><polygon class="cls-1" points="457.14 350 428.57 300 400 350 428.57 400 457.14 350"/><polygon class="cls-1" points="514.29 350 485.71 300 457.14 350 485.71 400 514.29 350"/><polygon class="cls-1" points="571.43 350 542.86 300 514.29 350 542.86 400 571.43 350"/><polygon class="cls-1" points="628.57 350 600 300 571.43 350 600 400 628.57 350"/><polygon class="cls-1" points="685.71 350 657.14 300 628.57 350 657.14 400 685.71 350"/><polygon class="cls-1" points="742.86 350 714.29 300 685.71 350 714.29 400 742.86 350"/><polygon class="cls-1" points="800 350 771.43 300 742.86 350 771.43 400 800 350"/><polygon class="cls-1" points="857.14 350 828.57 300 800 350 828.57 400 857.14 350"/><polygon class="cls-1" points="914.29 350 885.71 300 857.14 350 885.71 400 914.29 350"/><polygon class="cls-1" points="971.43 350 942.86 300 914.29 350 942.86 400 971.43 350"/><polygon class="cls-1" points="1000 400 1028.57 350 1000 300 971.43 350 1000 400"/><polygon class="cls-1" points="1057.14 400 1085.71 350 1057.14 300 1028.57 350 1057.14 400"/><polygon class="cls-1" points="1114.29 400 1142.86 350 1114.29 300 1085.71 350 1114.29 400"/><polygon class="cls-1" points="1171.43 400 1200 350 1171.43 300 1142.86 350 1171.43 400"/><polygon class="cls-1" points="28.57 400 0 450 28.57 500 57.14 450 28.57 400"/><polygon class="cls-1" points="85.71 400 57.14 450 85.71 500 114.29 450 85.71 400"/><polygon class="cls-1" points="142.86 400 114.29 450 142.86 500 171.43 450 142.86 400"/><polygon class="cls-1" points="171.43 450 200 500 228.57 450 200 400 171.43 450"/><polygon class="cls-1" points="228.57 450 257.14 500 285.71 450 257.14 400 228.57 450"/><polygon class="cls-1" points="285.71 450 314.29 500 342.86 450 314.29 400 285.71 450"/><polygon class="cls-1" points="342.86 450 371.43 500 400 450 371.43 400 342.86 450"/><polygon class="cls-1" points="400 450 428.57 500 457.14 450 428.57 400 400 450"/><polygon class="cls-1" points="457.14 450 485.71 500 514.29 450 485.71 400 457.14 450"/><polygon class="cls-1" points="514.29 450 542.86 500 571.43 450 542.86 400 514.29 450"/><polygon class="cls-1" points="571.43 450 600 500 628.57 450 600 400 571.43 450"/><polygon class="cls-1" points="628.57 450 657.14 500 685.71 450 657.14 400 628.57 450"/><polygon class="cls-1" points="685.71 450 714.29 500 742.86 450 714.29 400 685.71 450"/><polygon class="cls-1" points="742.86 450 771.43 500 800 450 771.43 400 742.86 450"/><polygon class="cls-1" points="800 450 828.57 500 857.14 450 828.57 400 800 450"/><polygon class="cls-1" points="857.14 450 885.71 500 914.29 450 885.71 400 857.14 450"/><polygon class="cls-1" points="914.29 450 942.86 500 971.43 450 942.86 400 914.29 450"/><polygon class="cls-1" points="1000 500 1028.57 450 1000 400 971.43 450 1000 500"/><polygon class="cls-1" points="1057.14 500 1085.71 450 1057.14 400 1028.57 450 1057.14 500"/><polygon class="cls-1" points="1114.29 500 1142.86 450 1114.29 400 1085.71 450 1114.29 500"/><polygon class="cls-1" points="1171.43 500 1200 450 1171.43 400 1142.86 450 1171.43 500"/><polygon class="cls-1" points="28.57 500 0 550 28.57 600 57.14 550 28.57 500"/><polygon class="cls-1" points="85.71 500 57.14 550 85.71 600 114.29 550 85.71 500"/><polygon class="cls-1" points="114.29 550 142.86 600 171.43 550 142.86 500 114.29 550"/><polygon class="cls-1" points="171.43 550 200 600 228.57 550 200 500 171.43 550"/><polygon class="cls-1" points="228.57 550 257.14 600 285.71 550 257.14 500 228.57 550"/><polygon class="cls-1" points="285.71 550 314.29 600 342.86 550 314.29 500 285.71 550"/><polygon class="cls-1" points="342.86 550 371.43 600 400 550 371.43 500 342.86 550"/><polygon class="cls-1" points="400 550 428.57 600 457.14 550 428.57 500 400 550"/><polygon class="cls-1" points="457.14 550 485.71 600 514.29 550 485.71 500 457.14 550"/><polygon class="cls-1" points="514.29 550 542.86 600 571.43 550 542.86 500 514.29 550"/><polygon class="cls-1" points="571.43 550 600 600 628.57 550 600 500 571.43 550"/><polygon class="cls-1" points="628.57 550 657.14 600 685.71 550 657.14 500 628.57 550"/><polygon class="cls-1" points="685.71 550 714.29 600 742.86 550 714.29 500 685.71 550"/><polygon class="cls-1" points="742.86 550 771.43 600 800 550 771.43 500 742.86 550"/><polygon class="cls-1" points="800 550 828.57 600 857.14 550 828.57 500 800 550"/><polygon class="cls-1" points="857.14 550 885.71 600 914.29 550 885.71 500 857.14 550"/><polygon class="cls-1" points="914.29 550 942.86 600 971.43 550 942.86 500 914.29 550"/><polygon class="cls-1" points="971.43 550 1000 600 1028.57 550 1000 500 971.43 550"/><polygon class="cls-1" points="1057.14 600 1085.71 550 1057.14 500 1028.57 550 1057.14 600"/><polygon class="cls-1" points="1114.29 600 1142.86 550 1114.29 500 1085.71 550 1114.29 600"/><polygon class="cls-1" points="1171.43 600 1200 550 1171.43 500 1142.86 550 1171.43 600"/><polygon class="cls-1" points="28.57 600 0 650 28.57 700 57.14 650 28.57 600"/><polygon class="cls-1" points="57.14 650 85.71 700 114.29 650 85.71 600 57.14 650"/><polygon class="cls-1" points="114.29 650 142.86 700 171.43 650 142.86 600 114.29 650"/><polygon class="cls-1" points="171.43 650 200 700 228.57 650 200 600 171.43 650"/><polygon class="cls-1" points="228.57 650 257.14 700 285.71 650 257.14 600 228.57 650"/><polygon class="cls-1" points="285.71 650 314.29 700 342.86 650 314.29 600 285.71 650"/><polygon class="cls-1" points="342.86 650 371.43 700 400 650 371.43 600 342.86 650"/><polygon class="cls-1" points="400 650 428.57 700 457.14 650 428.57 600 400 650"/><polygon class="cls-1" points="457.14 650 485.71 700 514.29 650 485.71 600 457.14 650"/><polygon class="cls-1" points="514.29 650 542.86 700 571.43 650 542.86 600 514.29 650"/><polygon class="cls-1" points="571.43 650 600 700 628.57 650 600 600 571.43 650"/><polygon class="cls-1" points="628.57 650 657.14 700 685.71 650 657.14 600 628.57 650"/><polygon class="cls-1" points="685.71 650 714.29 700 742.86 650 714.29 600 685.71 650"/><polygon class="cls-1" points="742.86 650 771.43 700 800 650 771.43 600 742.86 650"/><polygon class="cls-1" points="800 650 828.57 700 857.14 650 828.57 600 800 650"/><polygon class="cls-1" points="857.14 650 885.71 700 914.29 650 885.71 600 857.14 650"/><polygon class="cls-1" points="914.29 650 942.86 700 971.43 650 942.86 600 914.29 650"/><polygon class="cls-1" points="971.43 650 1000 700 1028.57 650 1000 600 971.43 650"/><polygon class="cls-1" points="1028.57 650 1057.14 700 1085.71 650 1057.14 600 1028.57 650"/><polygon class="cls-1" points="1114.29 700 1142.86 650 1114.29 600 1085.71 650 1114.29 700"/><polygon class="cls-1" points="1171.43 700 1200 650 1171.43 600 1142.86 650 1171.43 700"/><polygon class="cls-1" points="0 750 28.57 800 57.14 750 28.57 700 0 750"/><polygon class="cls-1" points="57.14 750 85.71 800 114.29 750 85.71 700 57.14 750"/><polygon class="cls-1" points="114.29 750 142.86 800 171.43 750 142.86 700 114.29 750"/><polygon class="cls-1" points="171.43 750 200 800 228.57 750 200 700 171.43 750"/><polygon class="cls-1" points="228.57 750 257.14 800 285.71 750 257.14 700 228.57 750"/><polygon class="cls-1" points="285.71 750 314.29 800 342.86 750 314.29 700 285.71 750"/><polygon class="cls-1" points="342.86 750 371.43 800 400 750 371.43 700 342.86 750"/><polygon class="cls-1" points="400 750 428.57 800 457.14 750 428.57 700 400 750"/><polygon class="cls-1" points="457.14 750 485.71 800 514.29 750 485.71 700 457.14 750"/><polygon class="cls-1" points="514.29 750 542.86 800 571.43 750 542.86 700 514.29 750"/><polygon class="cls-1" points="571.43 750 600 800 628.57 750 600 700 571.43 750"/><polygon class="cls-1" points="628.57 750 657.14 800 685.71 750 657.14 700 628.57 750"/><polygon class="cls-1" points="685.71 750 714.29 800 742.86 750 714.29 700 685.71 750"/><polygon class="cls-1" points="742.86 750 771.43 800 800 750 771.43 700 742.86 750"/><polygon class="cls-1" points="800 750 828.57 800 857.14 750 828.57 700 800 750"/><polygon class="cls-1" points="857.14 750 885.71 800 914.29 750 885.71 700 857.14 750"/><polygon class="cls-1" points="914.29 750 942.86 800 971.43 750 942.86 700 914.29 750"/><polygon class="cls-1" points="971.43 750 1000 800 1028.57 750 1000 700 971.43 750"/><polygon class="cls-1" points="1028.57 750 1057.14 800 1085.71 750 1057.14 700 1028.57 750"/><polygon class="cls-1" points="1085.71 750 1114.29 800 1142.86 750 1114.29 700 1085.71 750"/><polygon class="cls-1" points="1171.43 800 1200 750 1171.43 700 1142.86 750 1171.43 800"/></svg>