<svg id="Layer_1" data-name="Layer 1" xmlns="http://www.w3.org/2000/svg" viewBox="0 0 1200 800" preserveAspectRatio="none"><defs><style>.cls-1{fill:#dc0000;}</style></defs><title>Artboard 1 copy 8</title><rect class="cls-1" width="57.14" height="61.54"/><rect class="cls-1" x="114.29" width="57.14" height="61.54"/><rect class="cls-1" x="228.57" width="57.14" height="61.54"/><rect class="cls-1" x="171.43" y="61.54" width="57.14" height="61.54"/><rect class="cls-1" x="57.14" y="61.54" width="57.14" height="61.54"/><rect class="cls-1" y="123.08" width="57.14" height="61.54"/><rect class="cls-1" x="114.29" y="123.08" width="57.14" height="61.54"/><rect class="cls-1" x="228.57" y="123.08" width="57.14" height="61.54"/><rect class="cls-1" x="171.43" y="184.62" width="57.14" height="61.54"/><rect class="cls-1" x="57.14" y="184.62" width="57.14" height="61.54"/><rect class="cls-1" y="246.15" width="57.14" height="61.54"/><rect class="cls-1" x="114.29" y="246.15" width="57.14" height="61.54"/><rect class="cls-1" x="228.57" y="246.15" width="57.14" height="61.54"/><rect class="cls-1" x="342.86" width="57.14" height="61.54"/><rect class="cls-1" x="457.14" width="57.14" height="61.54"/><rect class="cls-1" x="400" y="61.54" width="57.14" height="61.54"/><rect class="cls-1" x="285.71" y="61.54" width="57.14" height="61.54"/><rect class="cls-1" x="342.86" y="123.08" width="57.14" height="61.54"/><rect class="cls-1" x="457.14" y="123.08" width="57.14" height="61.54"/><rect class="cls-1" x="400" y="184.62" width="57.14" height="61.54"/><rect class="cls-1" x="285.71" y="184.62" width="57.14" height="61.54"/><rect class="cls-1" x="342.86" y="246.15" width="57.14" height="61.54"/><rect class="cls-1" x="457.14" y="246.15" width="57.14" height="61.54"/><rect class="cls-1" x="571.43" width="57.14" height="61.54"/><rect class="cls-1" x="685.71" width="57.14" height="61.54"/><rect class="cls-1" x="628.57" y="61.54" width="57.14" height="61.54"/><rect class="cls-1" x="514.29" y="61.54" width="57.14" height="61.54"/><rect class="cls-1" x="571.43" y="123.08" width="57.14" height="61.54"/><rect class="cls-1" x="685.71" y="123.08" width="57.14" height="61.54"/><rect class="cls-1" x="628.57" y="184.62" width="57.14" height="61.54"/><rect class="cls-1" x="514.29" y="184.62" width="57.14" height="61.54"/><rect class="cls-1" x="571.43" y="246.15" width="57.14" height="61.54"/><rect class="cls-1" x="685.71" y="246.15" width="57.14" height="61.54"/><rect class="cls-1" x="800" width="57.14" height="61.54"/><rect class="cls-1" x="914.29" width="57.14" height="61.54"/><rect class="cls-1" x="857.14" y="61.54" width="57.14" height="61.54"/><rect class="cls-1" x="742.86" y="61.54" width="57.14" height="61.54"/><rect class="cls-1" x="800" y="123.08" width="57.14" height="61.54"/><rect class="cls-1" x="914.29" y="123.08" width="57.14" height="61.54"/><rect class="cls-1" x="857.14" y="184.62" width="57.14" height="61.54"/><rect class="cls-1" x="742.86" y="184.62" width="57.14" height="61.54"/><rect class="cls-1" x="800" y="246.15" width="57.14" height="61.54"/><rect class="cls-1" x="914.29" y="246.15" width="57.14" height="61.54"/><rect class="cls-1" x="1028.57" width="57.14" height="61.54"/><rect class="cls-1" x="1142.86" width="57.14" height="61.54"/><rect class="cls-1" x="1085.71" y="61.54" width="57.14" height="61.54"/><rect class="cls-1" x="971.43" y="61.54" width="57.14" height="61.54"/><rect class="cls-1" x="1028.57" y="123.08" width="57.14" height="61.54"/><rect class="cls-1" x="1142.86" y="123.08" width="57.14" height="61.54"/><rect class="cls-1" x="1085.71" y="184.62" width="57.14" height="61.54"/><rect class="cls-1" x="971.43" y="184.62" width="57.14" height="61.54"/><rect class="cls-1" x="1028.57" y="246.15" width="57.14" height="61.54"/><rect class="cls-1" x="1142.86" y="246.15" width="57.14" height="61.54"/><rect class="cls-1" x="171.43" y="307.69" width="57.14" height="61.54"/><rect class="cls-1" x="57.14" y="307.69" width="57.14" height="61.54"/><rect class="cls-1" y="369.23" width="57.14" height="61.54"/><rect class="cls-1" x="114.29" y="369.23" width="57.14" height="61.54"/><rect class="cls-1" x="228.57" y="369.23" width="57.14" height="61.54"/><rect class="cls-1" x="171.43" y="430.77" width="57.14" height="61.54"/><rect class="cls-1" x="57.14" y="430.77" width="57.14" height="61.54"/><rect class="cls-1" y="492.31" width="57.14" height="61.54"/><rect class="cls-1" x="114.29" y="492.31" width="57.14" height="61.54"/><rect class="cls-1" x="228.57" y="492.31" width="57.14" height="61.54"/><rect class="cls-1" x="400" y="307.69" width="57.14" height="61.54"/><rect class="cls-1" x="285.71" y="307.69" width="57.14" height="61.54"/><rect class="cls-1" x="342.86" y="369.23" width="57.14" height="61.54"/><rect class="cls-1" x="457.14" y="369.23" width="57.14" height="61.54"/><rect class="cls-1" x="400" y="430.77" width="57.14" height="61.54"/><rect class="cls-1" x="285.71" y="430.77" width="57.14" height="61.54"/><rect class="cls-1" x="342.86" y="492.31" width="57.14" height="61.54"/><rect class="cls-1" x="457.14" y="492.31" width="57.14" height="61.54"/><rect class="cls-1" x="628.57" y="307.69" width="57.14" height="61.54"/><rect class="cls-1" x="514.29" y="307.69" width="57.14" height="61.54"/><rect class="cls-1" x="571.43" y="369.23" width="57.14" height="61.54"/><rect class="cls-1" x="685.71" y="369.23" width="57.14" height="61.54"/><rect class="cls-1" x="628.57" y="430.77" width="57.14" height="61.54"/><rect class="cls-1" x="514.29" y="430.77" width="57.14" height="61.54"/><rect class="cls-1" x="571.43" y="492.31" width="57.14" height="61.54"/><rect class="cls-1" x="685.71" y="492.31" width="57.14" height="61.54"/><rect class="cls-1" x="857.14" y="307.69" width="57.14" height="61.54"/><rect class="cls-1" x="742.86" y="307.69" width="57.14" height="61.54"/><rect class="cls-1" x="800" y="369.23" width="57.14" height="61.54"/><rect class="cls-1" x="914.29" y="369.23" width="57.14" height="61.54"/><rect class="cls-1" x="857.14" y="430.77" width="57.14" height="61.54"/><rect class="cls-1" x="742.86" y="430.77" width="57.14" height="61.54"/><rect class="cls-1" x="800" y="492.31" width="57.14" height="61.54"/><rect class="cls-1" x="914.29" y="492.31" width="57.14" height="61.54"/><rect class="cls-1" x="1085.71" y="307.69" width="57.14" height="61.54"/><rect class="cls-1" x="971.43" y="307.69" width="57.14" height="61.54"/><rect class="cls-1" x="1028.57" y="369.23" width="57.14" height="61.54"/><rect class="cls-1" x="1142.86" y="369.23" width="57.14" height="61.54"/><rect class="cls-1" x="1085.71" y="430.77" width="57.14" height="61.54"/><rect class="cls-1" x="971.43" y="430.77" width="57.14" height="61.54"/><rect class="cls-1" x="1028.57" y="492.31" width="57.14" height="61.54"/><rect class="cls-1" x="1142.86" y="492.31" width="57.14" height="61.54"/><rect class="cls-1" x="171.43" y="553.85" width="57.14" height="61.54"/><rect class="cls-1" x="57.14" y="553.85" width="57.14" height="61.54"/><rect class="cls-1" y="615.38" width="57.14" height="61.54"/><rect class="cls-1" x="114.29" y="615.38" width="57.14" height="61.54"/><rect class="cls-1" x="228.57" y="615.38" width="57.14" height="61.54"/><rect class="cls-1" x="171.43" y="676.92" width="57.14" height="61.54"/><rect class="cls-1" x="57.14" y="676.92" width="57.14" height="61.54"/><rect class="cls-1" y="738.46" width="57.14" height="61.54"/><rect class="cls-1" x="114.29" y="738.46" width="57.14" height="61.54"/><rect class="cls-1" x="228.57" y="738.46" width="57.14" height="61.54"/><rect class="cls-1" x="400" y="553.85" width="57.14" height="61.54"/><rect class="cls-1" x="285.71" y="553.85" width="57.14" height="61.54"/><rect class="cls-1" x="342.86" y="615.38" width="57.14" height="61.54"/><rect class="cls-1" x="457.14" y="615.38" width="57.14" height="61.54"/><rect class="cls-1" x="400" y="676.92" width="57.14" height="61.54"/><rect class="cls-1" x="285.71" y="676.92" width="57.14" height="61.54"/><rect class="cls-1" x="342.86" y="738.46" width="57.14" height="61.54"/><rect class="cls-1" x="457.14" y="738.46" width="57.14" height="61.54"/><rect class="cls-1" x="628.57" y="553.85" width="57.14" height="61.54"/><rect class="cls-1" x="514.29" y="553.85" width="57.14" height="61.54"/><rect class="cls-1" x="571.43" y="615.38" width="57.14" height="61.54"/><rect class="cls-1" x="685.71" y="615.38" width="57.14" height="61.54"/><rect class="cls-1" x="628.57" y="676.92" width="57.14" height="61.54"/><rect class="cls-1" x="514.29" y="676.92" width="57.14" height="61.54"/><rect class="cls-1" x="571.43" y="738.46" width="57.14" height="61.54"/><rect class="cls-1" x="685.71" y="738.46" width="57.14" height="61.54"/><rect class="cls-1" x="857.14" y="553.85" width="57.14" height="61.54"/><rect class="cls-1" x="742.86" y="553.85" width="57.14" height="61.54"/><rect class="cls-1" x="800" y="615.38" width="57.14" height="61.54"/><rect class="cls-1" x="914.29" y="615.38" width="57.14" height="61.54"/><rect class="cls-1" x="857.14" y="676.92" width="57.14" height="61.54"/><rect class="cls-1" x="742.86" y="676.92" width="57.14" height="61.54"/><rect class="cls-1" x="800" y="738.46" width="57.14" height="61.54"/><rect class="cls-1" x="914.29" y="738.46" width="57.14" height="61.54"/><rect class="cls-1" x="1085.71" y="553.85" width="57.14" height="61.54"/><rect class="cls-1" x="971.43" y="553.85" width="57.14" height="61.54"/><rect class="cls-1" x="1028.57" y="615.38" width="57.14" height="61.54"/><rect class="cls-1" x="1142.86" y="615.38" width="57.14" height="61.54"/><rect class="cls-1" x="1085.71" y="676.92" width="57.14" height="61.54"/><rect class="cls-1" x="971.43" y="676.92" width="57.14" height="61.54"/><rect class="cls-1" x="1028.57" y="738.46" width="57.14" height="61.54"/><rect class="cls-1" x="1142.86" y="738.46" width="57.14" height="61.54"/></svg>