<svg id="Layer_1" data-name="Layer 1" xmlns="http://www.w3.org/2000/svg" viewBox="0 0 1200 800" preserveAspectRatio="none"><defs><style>.cls-1{fill:#079907;}.cls-2{fill:#f2db0c;}</style></defs><title>Artboard 1 copy 30</title><polygon class="cls-1" points="1136.9 0 63.1 0 600 357.94 1136.9 0"/><polygon points="0 42.06 0 757.94 536.9 400 0 42.06"/><polygon points="1200 757.94 1200 42.06 663.1 400 1200 757.94"/><polygon class="cls-1" points="63.1 800 1136.9 800 600 442.06 63.1 800"/><polygon class="cls-2" points="1200 757.94 663.1 400 1200 42.06 1200 0 1136.9 0 600 357.94 63.1 0 0 0 0 42.06 536.9 400 0 757.94 0 800 63.1 800 600 442.06 1136.9 800 1200 800 1200 757.94"/></svg>