<svg id="Layer_1" data-name="Layer 1" xmlns="http://www.w3.org/2000/svg" viewBox="0 0 1200 800" preserveAspectRatio="none"><defs><style>.cls-1{fill:#005eb8;}.cls-2{fill:#ffe900;}.cls-3{fill:#da291c;}.cls-4{fill:#fff;}</style></defs><title>Artboard 1 copy 20</title><rect class="cls-1" width="400" height="800"/><rect class="cls-1" x="800" width="400" height="800"/><rect class="cls-2" x="400" width="400" height="800"/><polygon class="cls-3" points="720 360 640 360 640 280 680 240 520 240 560 280 560 360 480 360 440 320 440 480 480 440 560 440 560 520 520 560 680 560 640 520 640 440 720 440 760 480 760 320 720 360"/><path class="cls-4" d="M586.67,280V386.67H480v26.67H586.67V520h26.67V413.33H720V386.67H613.33V280Z"/></svg>