<svg id="Layer_1" data-name="Layer 1" xmlns="http://www.w3.org/2000/svg" viewBox="0 0 1200 800" preserveAspectRatio="none"><defs><style>.cls-1{fill:#f00f00;}.cls-2{fill:#fff;}</style></defs><title>Artboard 1 copy 24@2x</title><rect class="cls-1" width="1200" height="800" transform="translate(1200 800) rotate(-180)"/><polygon class="cls-2" points="328.88 240.21 346.7 295.05 404.37 295.05 357.72 328.95 375.54 383.8 328.88 349.9 282.23 383.8 300.05 328.95 253.39 295.05 311.06 295.05 328.88 240.21"/><polygon class="cls-2" points="509.63 240.21 527.45 295.05 585.12 295.05 538.46 328.95 556.28 383.8 509.63 349.9 462.97 383.8 480.79 328.95 434.14 295.05 491.81 295.05 509.63 240.21"/><polygon class="cls-2" points="690.37 240.21 708.19 295.05 765.86 295.05 719.21 328.95 737.03 383.8 690.37 349.9 643.72 383.8 661.54 328.95 614.88 295.05 672.55 295.05 690.37 240.21"/><polygon class="cls-2" points="871.12 240.21 888.94 295.05 946.61 295.05 899.95 328.95 917.77 383.8 871.12 349.9 824.46 383.8 842.28 328.95 795.63 295.05 853.3 295.05 871.12 240.21"/><polygon class="cls-2" points="419.25 416.2 437.08 471.05 494.75 471.05 448.09 504.95 465.91 559.79 419.25 525.9 372.6 559.79 390.42 504.95 343.77 471.05 401.44 471.05 419.25 416.2"/><polygon class="cls-2" points="600 416.2 617.82 471.05 675.49 471.05 628.84 504.95 646.65 559.79 600 525.9 553.35 559.79 571.16 504.95 524.51 471.05 582.18 471.05 600 416.2"/><polygon class="cls-2" points="780.75 416.2 798.57 471.05 856.23 471.05 809.58 504.95 827.4 559.79 780.75 525.9 734.09 559.79 751.91 504.95 705.25 471.05 762.92 471.05 780.75 416.2"/></svg>