<svg id="Layer_1" data-name="Layer 1" xmlns="http://www.w3.org/2000/svg" viewBox="0 0 1200 800" preserveAspectRatio="none"><defs><style>.cls-1{fill:#061d60;}.cls-2{fill:#ffd02e;stroke:#ffd02e;stroke-width:0.95px;}</style></defs><title>Artboard 1 copy 15</title><rect class="cls-1" width="480" height="800"/><path class="cls-2" d="M509.37,190.64l-18.14,13.15L498.12,225,480,211.9,461.94,225l6.91-21.27-18.16-13.19,22.43,0L480,169.3l6.92,21.31ZM206,340.18l-.37-22.41-12.89,18.35-21.43-6.56,13.48,17.88L171.9,365.8l21.22-7.31,13.46,17.86L206.23,354l21.12-7.27Zm56.84-59.39,5-21.85L250.93,273.7l-19.26-11.46,8.84,20.57-16.89,14.77L246,295.51l8.83,20.55,5-21.81,22.24-2Zm69.32-44,10-20-19.91,10.33-16-15.71,3.7,22.08-19.91,10.33,22.2,3.32,3.7,22.06,10-20,22.09,3.3Zm70.37-37.9-11.79-19.06-1.65,22.33-21.8,5.3,20.77,8.5-1.65,22.3,14.47-17.06,20.67,8.46-11.74-19,14.5-17.09ZM571,202.23l-1.65-22.35-11.78,19-21.78-5.36,14.5,17.13-11.76,19,20.71-8.45,14.43,17L572,216.05l20.75-8.46ZM650,233.52l3.7-22.1-16,15.7L617.9,216.73l10,20.09L612,252.5l22.13-3.28,10,20,3.69-22,22.17-3.29Zm69.47,49.34,8.85-20.59-19.24,11.45-16.84-14.81,5,21.89L678,292.25l22.27,2.07,4.93,21.78L714,295.6l22.31,2.08Zm55.71,64.65,13.49-17.89-21.41,6.55-12.84-18.39-.39,22.44-21.39,6.54,21.14,7.31-.39,22.33,13.44-17.82,21.18,7.32Z"/></svg>