<svg id="Layer_1" data-name="Layer 1" xmlns="http://www.w3.org/2000/svg" viewBox="0 0 1200 800" preserveAspectRatio="none"><defs><style>.cls-1{fill:#b71313;}.cls-2{fill:#f2db0c;}</style></defs><title>Artboard 1 copy 29</title><rect class="cls-1" width="1200" height="800"/><path class="cls-2" d="M295.68,336.08h25.8l41.77,70q1.4,2.63,3,5.7t3,5.7q1.58,3.16,2.81,6.14h.35q-.18-3.69-.35-7.55-.18-3.33-.26-7.11t-.09-7.11V336.08h25.1V461.57H372.2l-42.82-69.32a52.85,52.85,0,0,1-3.07-5.53q-1.49-3.07-2.9-5.7-1.58-3.16-3-6.14h-.35q.17,3.86.35,7.72.17,3.34.26,7.11t.09,7.11v64.76h-25.1Zm175.5,128.29a62,62,0,0,1-25.1-4.91A55.59,55.59,0,0,1,427,445.86a59.76,59.76,0,0,1-12.11-20.71,82.76,82.76,0,0,1,0-52.12A60.75,60.75,0,0,1,427,352.23a55.1,55.1,0,0,1,19.13-13.69,66.32,66.32,0,0,1,50.11,0,55.33,55.33,0,0,1,19,13.69A60.71,60.71,0,0,1,527.34,373a82.72,82.72,0,0,1,0,52.12,59.73,59.73,0,0,1-12.11,20.71,55.83,55.83,0,0,1-19,13.6A61.39,61.39,0,0,1,471.18,464.37Zm.18-20.88a30.2,30.2,0,0,0,25.71-12.81,41.76,41.76,0,0,0,6.41-14.13,73.83,73.83,0,0,0,0-35,42.85,42.85,0,0,0-6.41-14.13,30.8,30.8,0,0,0-10.71-9.48,31.41,31.41,0,0,0-15-3.42,31.91,31.91,0,0,0-15.09,3.42,31.3,31.3,0,0,0-10.88,9.48,43,43,0,0,0-6.58,14.13,70.9,70.9,0,0,0,0,35,41.92,41.92,0,0,0,6.58,14.13,30.83,30.83,0,0,0,26,12.81ZM668.9,336.08h49a52.61,52.61,0,0,1,22.81,4.83,51.28,51.28,0,0,1,17.38,13.34,60.11,60.11,0,0,1,11.06,20.27A81.77,81.77,0,0,1,773,400.14a76.39,76.39,0,0,1-5,28.17,50.05,50.05,0,0,1-31.15,30.1,64.3,64.3,0,0,1-21.06,3.16H668.9ZM714,439.63q17.9,0,25.54-10.35t7.63-29.13a68.39,68.39,0,0,0-2-17.11A38.9,38.9,0,0,0,739,369.6a28.51,28.51,0,0,0-10.18-8.69,30.87,30.87,0,0,0-14.13-3.07H694.35v81.78Zm129.94,24.75a62,62,0,0,1-25.1-4.91,55.6,55.6,0,0,1-19.13-13.6,59.73,59.73,0,0,1-12.11-20.71,82.72,82.72,0,0,1,0-52.12,60.71,60.71,0,0,1,12.11-20.8,55.11,55.11,0,0,1,19.13-13.69,66.32,66.32,0,0,1,50.11,0,55.3,55.3,0,0,1,19,13.69A60.72,60.72,0,0,1,900.11,373a82.76,82.76,0,0,1,0,52.12A59.73,59.73,0,0,1,888,445.86a55.79,55.79,0,0,1-19,13.6A61.39,61.39,0,0,1,843.95,464.37Zm.17-20.88a30.2,30.2,0,0,0,25.71-12.81,41.73,41.73,0,0,0,6.41-14.13,73.83,73.83,0,0,0,0-35,42.81,42.81,0,0,0-6.41-14.13,30.78,30.78,0,0,0-10.71-9.48,31.4,31.4,0,0,0-15-3.42A31.9,31.9,0,0,0,829,357.93a31.28,31.28,0,0,0-10.88,9.48,43.08,43.08,0,0,0-6.58,14.13,71,71,0,0,0,0,35,42,42,0,0,0,6.58,14.13,30.83,30.83,0,0,0,26,12.81ZM598,359.06l-7.82-6.26c-2.18-1.75-53.45-43.44-53.45-97.58a61.26,61.26,0,1,1,122.53,0c0,54.14-51.26,95.84-53.45,97.58ZM598,219a36.3,36.3,0,0,0-36.26,36.26c0,31.07,23.57,58.45,36.24,70.93,12.66-12.51,36.28-40,36.28-70.93A36.3,36.3,0,0,0,598,219ZM598,606a61.33,61.33,0,0,1-61.26-61.26c0-54.14,51.26-95.84,53.45-97.58l7.82-6.26,7.82,6.26c2.18,1.75,53.45,43.44,53.45,97.58A61.33,61.33,0,0,1,598,606Zm0-132.19c-12.66,12.51-36.28,40-36.28,70.93a36.26,36.26,0,1,0,72.53,0C634.26,513.72,610.69,486.33,598,473.86Zm40.56-87.32-4.34-24.62-76.81,13.54,4.34,24.62Zm0,38-4.34-24.62-76.81,13.54,4.34,24.62Z"/></svg>