<svg id="Layer_1" data-name="Layer 1" xmlns="http://www.w3.org/2000/svg" viewBox="0 0 1200 800" preserveAspectRatio="none"><defs><style>.cls-1{fill:#0038a8;}.cls-2{fill:#f7d00f;}</style></defs><title>Artboard 1 copy 14</title><rect class="cls-1" x="444.44" y="88.89" width="755.56" height="88.89"/><rect class="cls-1" x="444.44" y="266.67" width="755.56" height="88.89"/><rect class="cls-1" y="444.44" width="1200" height="88.89"/><rect class="cls-1" y="622.22" width="1200" height="88.89"/><polygon class="cls-2" points="359.19 212.22 259.54 212.22 345.84 162.4 335.84 145.08 249.54 194.9 299.37 108.6 282.05 98.6 232.22 184.9 232.22 85.25 212.22 85.25 212.22 184.9 162.4 98.6 145.08 108.6 194.9 194.9 108.6 145.08 98.6 162.4 184.9 212.22 85.25 212.22 85.25 232.22 184.9 232.22 98.6 282.05 108.6 299.37 194.9 249.54 145.08 335.84 162.4 345.84 212.22 259.54 212.22 359.19 232.22 359.19 232.22 259.54 282.05 345.84 299.37 335.84 249.54 249.54 335.84 299.37 345.84 282.05 259.54 232.22 359.19 232.22 359.19 212.22"/></svg>