<svg id="Layer_1" data-name="Layer 1" xmlns="http://www.w3.org/2000/svg" viewBox="0 0 1200 800" preserveAspectRatio="none"><defs><style>.cls-1{fill:#163fc1;}.cls-2{fill:#fff;}</style></defs><title>Artboard 1 copy 16</title><rect class="cls-1" width="1200" height="800"/><polygon class="cls-2" points="94.43 35.76 83.4 69.71 47.71 69.71 76.58 90.69 65.55 124.63 94.43 103.65 123.3 124.63 112.27 90.69 141.15 69.71 105.46 69.71 94.43 35.76"/><polygon class="cls-2" points="94.43 195.66 83.4 229.61 47.71 229.61 76.58 250.59 65.55 284.53 94.43 263.55 123.3 284.53 112.27 250.59 141.15 229.61 105.46 229.61 94.43 195.66"/><polygon class="cls-2" points="94.43 355.57 83.4 389.51 47.71 389.51 76.58 410.49 65.55 444.43 94.43 423.45 123.3 444.43 112.27 410.49 141.15 389.51 105.46 389.51 94.43 355.57"/><polygon class="cls-2" points="94.43 515.47 83.4 549.41 47.71 549.41 76.58 570.39 65.55 604.34 94.43 583.36 123.3 604.34 112.27 570.39 141.15 549.41 105.46 549.41 94.43 515.47"/><polygon class="cls-2" points="105.46 709.31 94.43 675.37 83.4 709.31 47.71 709.31 76.58 730.29 65.55 764.24 94.43 743.26 123.3 764.24 112.27 730.29 141.15 709.31 105.46 709.31"/><polygon class="cls-2" points="195.54 115.72 184.51 149.66 148.82 149.66 177.7 170.64 166.67 204.58 195.54 183.6 224.42 204.58 213.39 170.64 242.26 149.66 206.57 149.66 195.54 115.72"/><polygon class="cls-2" points="195.54 275.62 184.51 309.56 148.82 309.56 177.7 330.54 166.67 364.48 195.54 343.5 224.42 364.48 213.39 330.54 242.26 309.56 206.57 309.56 195.54 275.62"/><polygon class="cls-2" points="195.54 435.52 184.51 469.46 148.82 469.46 177.7 490.44 166.67 524.38 195.54 503.41 224.42 524.38 213.39 490.44 242.26 469.46 206.57 469.46 195.54 435.52"/><polygon class="cls-2" points="206.57 629.36 195.54 595.42 184.51 629.36 148.82 629.36 177.7 650.34 166.67 684.28 195.54 663.31 224.42 684.28 213.39 650.34 242.26 629.36 206.57 629.36"/><polygon class="cls-2" points="296.66 35.76 285.63 69.71 249.94 69.71 278.81 90.69 267.78 124.63 296.66 103.65 325.53 124.63 314.5 90.69 343.38 69.71 307.69 69.71 296.66 35.76"/><polygon class="cls-2" points="296.66 195.66 285.63 229.61 249.94 229.61 278.81 250.59 267.78 284.53 296.66 263.55 325.53 284.53 314.5 250.59 343.38 229.61 307.69 229.61 296.66 195.66"/><polygon class="cls-2" points="296.66 355.57 285.63 389.51 249.94 389.51 278.81 410.49 267.78 444.43 296.66 423.45 325.53 444.43 314.5 410.49 343.38 389.51 307.69 389.51 296.66 355.57"/><polygon class="cls-2" points="296.66 515.47 285.63 549.41 249.94 549.41 278.81 570.39 267.78 604.34 296.66 583.36 325.53 604.34 314.5 570.39 343.38 549.41 307.69 549.41 296.66 515.47"/><polygon class="cls-2" points="307.69 709.31 296.66 675.37 285.63 709.31 249.94 709.31 278.81 730.29 267.78 764.24 296.66 743.26 325.53 764.24 314.5 730.29 343.38 709.31 307.69 709.31"/><polygon class="cls-2" points="397.77 115.72 386.74 149.66 351.05 149.66 379.93 170.64 368.9 204.58 397.77 183.6 426.64 204.58 415.62 170.64 444.49 149.66 408.8 149.66 397.77 115.72"/><polygon class="cls-2" points="397.77 275.62 386.74 309.56 351.05 309.56 379.93 330.54 368.9 364.48 397.77 343.5 426.64 364.48 415.62 330.54 444.49 309.56 408.8 309.56 397.77 275.62"/><polygon class="cls-2" points="397.77 435.52 386.74 469.46 351.05 469.46 379.93 490.44 368.9 524.38 397.77 503.41 426.64 524.38 415.62 490.44 444.49 469.46 408.8 469.46 397.77 435.52"/><polygon class="cls-2" points="408.8 629.36 397.77 595.42 386.74 629.36 351.05 629.36 379.93 650.34 368.9 684.28 397.77 663.31 426.64 684.28 415.62 650.34 444.49 629.36 408.8 629.36"/><polygon class="cls-2" points="498.88 35.76 487.86 69.71 452.17 69.71 481.04 90.69 470.01 124.63 498.88 103.65 527.76 124.63 516.73 90.69 545.61 69.71 509.91 69.71 498.88 35.76"/><polygon class="cls-2" points="498.88 195.66 487.86 229.61 452.17 229.61 481.04 250.59 470.01 284.53 498.88 263.55 527.76 284.53 516.73 250.59 545.61 229.61 509.91 229.61 498.88 195.66"/><polygon class="cls-2" points="498.88 355.57 487.86 389.51 452.17 389.51 481.04 410.49 470.01 444.43 498.88 423.45 527.76 444.43 516.73 410.49 545.61 389.51 509.91 389.51 498.88 355.57"/><polygon class="cls-2" points="498.88 515.47 487.86 549.41 452.17 549.41 481.04 570.39 470.01 604.34 498.88 583.36 527.76 604.34 516.73 570.39 545.61 549.41 509.91 549.41 498.88 515.47"/><polygon class="cls-2" points="509.91 709.31 498.88 675.37 487.86 709.31 452.17 709.31 481.04 730.29 470.01 764.24 498.88 743.26 527.76 764.24 516.73 730.29 545.61 709.31 509.91 709.31"/><polygon class="cls-2" points="600 115.72 588.97 149.66 553.28 149.66 582.15 170.64 571.13 204.58 600 183.6 628.88 204.58 617.85 170.64 646.72 149.66 611.03 149.66 600 115.72"/><polygon class="cls-2" points="600 275.62 588.97 309.56 553.28 309.56 582.15 330.54 571.13 364.48 600 343.5 628.88 364.48 617.85 330.54 646.72 309.56 611.03 309.56 600 275.62"/><polygon class="cls-2" points="600 435.52 588.97 469.46 553.28 469.46 582.15 490.44 571.13 524.38 600 503.41 628.88 524.38 617.85 490.44 646.72 469.46 611.03 469.46 600 435.52"/><polygon class="cls-2" points="611.03 629.36 600 595.42 588.97 629.36 553.28 629.36 582.15 650.34 571.13 684.28 600 663.31 628.88 684.28 617.85 650.34 646.72 629.36 611.03 629.36"/><polygon class="cls-2" points="701.12 35.76 690.09 69.71 654.39 69.71 683.27 90.69 672.24 124.63 701.12 103.65 729.99 124.63 718.96 90.69 747.83 69.71 712.14 69.71 701.12 35.76"/><polygon class="cls-2" points="701.12 195.66 690.09 229.61 654.39 229.61 683.27 250.59 672.24 284.53 701.12 263.55 729.99 284.53 718.96 250.59 747.83 229.61 712.14 229.61 701.12 195.66"/><polygon class="cls-2" points="701.12 355.57 690.09 389.51 654.39 389.51 683.27 410.49 672.24 444.43 701.12 423.45 729.99 444.43 718.96 410.49 747.83 389.51 712.14 389.51 701.12 355.57"/><polygon class="cls-2" points="701.12 515.47 690.09 549.41 654.39 549.41 683.27 570.39 672.24 604.34 701.12 583.36 729.99 604.34 718.96 570.39 747.83 549.41 712.14 549.41 701.12 515.47"/><polygon class="cls-2" points="712.14 709.31 701.12 675.37 690.09 709.31 654.39 709.31 683.27 730.29 672.24 764.24 701.12 743.26 729.99 764.24 718.96 730.29 747.83 709.31 712.14 709.31"/><polygon class="cls-2" points="802.23 115.72 791.2 149.66 755.51 149.66 784.38 170.64 773.36 204.58 802.23 183.6 831.1 204.58 820.08 170.64 848.95 149.66 813.26 149.66 802.23 115.72"/><polygon class="cls-2" points="802.23 275.62 791.2 309.56 755.51 309.56 784.38 330.54 773.36 364.48 802.23 343.5 831.1 364.48 820.08 330.54 848.95 309.56 813.26 309.56 802.23 275.62"/><polygon class="cls-2" points="802.23 435.52 791.2 469.46 755.51 469.46 784.38 490.44 773.36 524.38 802.23 503.41 831.1 524.38 820.08 490.44 848.95 469.46 813.26 469.46 802.23 435.52"/><polygon class="cls-2" points="813.26 629.36 802.23 595.42 791.2 629.36 755.51 629.36 784.38 650.34 773.36 684.28 802.23 663.31 831.1 684.28 820.08 650.34 848.95 629.36 813.26 629.36"/><polygon class="cls-2" points="903.34 35.76 892.32 69.71 856.62 69.71 885.5 90.69 874.47 124.63 903.34 103.65 932.22 124.63 921.19 90.69 950.06 69.71 914.37 69.71 903.34 35.76"/><polygon class="cls-2" points="903.34 195.66 892.32 229.61 856.62 229.61 885.5 250.59 874.47 284.53 903.34 263.55 932.22 284.53 921.19 250.59 950.06 229.61 914.37 229.61 903.34 195.66"/><polygon class="cls-2" points="903.34 355.57 892.32 389.51 856.62 389.51 885.5 410.49 874.47 444.43 903.34 423.45 932.22 444.43 921.19 410.49 950.06 389.51 914.37 389.51 903.34 355.57"/><polygon class="cls-2" points="903.34 515.47 892.32 549.41 856.62 549.41 885.5 570.39 874.47 604.34 903.34 583.36 932.22 604.34 921.19 570.39 950.06 549.41 914.37 549.41 903.34 515.47"/><polygon class="cls-2" points="914.37 709.31 903.34 675.37 892.32 709.31 856.62 709.31 885.5 730.29 874.47 764.24 903.34 743.26 932.22 764.24 921.19 730.29 950.06 709.31 914.37 709.31"/><polygon class="cls-2" points="1004.46 115.72 993.43 149.66 957.74 149.66 986.61 170.64 975.58 204.58 1004.46 183.6 1033.33 204.58 1022.3 170.64 1051.18 149.66 1015.49 149.66 1004.46 115.72"/><polygon class="cls-2" points="1004.46 275.62 993.43 309.56 957.74 309.56 986.61 330.54 975.58 364.48 1004.46 343.5 1033.33 364.48 1022.3 330.54 1051.18 309.56 1015.49 309.56 1004.46 275.62"/><polygon class="cls-2" points="1004.46 435.52 993.43 469.46 957.74 469.46 986.61 490.44 975.58 524.38 1004.46 503.41 1033.33 524.38 1022.3 490.44 1051.18 469.46 1015.49 469.46 1004.46 435.52"/><polygon class="cls-2" points="1015.49 629.36 1004.46 595.42 993.43 629.36 957.74 629.36 986.61 650.34 975.58 684.28 1004.46 663.31 1033.33 684.28 1022.3 650.34 1051.18 629.36 1015.49 629.36"/><polygon class="cls-2" points="1076.7 124.63 1105.57 103.65 1134.45 124.63 1123.42 90.69 1152.29 69.71 1116.6 69.71 1105.57 35.76 1094.54 69.71 1058.85 69.71 1087.73 90.69 1076.7 124.63"/><polygon class="cls-2" points="1105.57 195.66 1094.54 229.61 1058.85 229.61 1087.73 250.59 1076.7 284.53 1105.57 263.55 1134.45 284.53 1123.42 250.59 1152.29 229.61 1116.6 229.61 1105.57 195.66"/><polygon class="cls-2" points="1105.57 355.57 1094.54 389.51 1058.85 389.51 1087.73 410.49 1076.7 444.43 1105.57 423.45 1134.45 444.43 1123.42 410.49 1152.29 389.51 1116.6 389.51 1105.57 355.57"/><polygon class="cls-2" points="1105.57 515.47 1094.54 549.41 1058.85 549.41 1087.73 570.39 1076.7 604.34 1105.57 583.36 1134.45 604.34 1123.42 570.39 1152.29 549.41 1116.6 549.41 1105.57 515.47"/><polygon class="cls-2" points="1116.6 709.31 1105.57 675.37 1094.54 709.31 1058.85 709.31 1087.73 730.29 1076.7 764.24 1105.57 743.26 1134.45 764.24 1123.42 730.29 1152.29 709.31 1116.6 709.31"/></svg>